<?xml version="1.0"?> <svg xmlns="http://www.w3.org/2000/svg" xmlns:xlink="http://www.w3.org/1999/xlink" id="Templates" viewBox="0 0 1487.92 433.03"><defs><clipPath id="clippath"><rect class="cls-1" x=".14" y=".04" width="374.88" height="432.98"></rect></clipPath></defs><g><path class="cls-2" d="M500.96,175.79c-7.35-5.82-11.03-14.45-11.03-25.9v-49.06c0-2.17-.52-3.76-1.56-4.77-1.04-1.01-2.76-1.52-5.18-1.52h-4.96s0-9.4,0-9.4h49.14s0,9.4,0,9.4h-5.03c-2.42,0-4.13.51-5.14,1.52-1.01,1.01-1.52,2.6-1.52,4.77v48.84c0,6.86,1.95,11.9,5.85,15.13,3.9,3.23,9.37,4.85,16.43,4.85,7.15,0,12.81-1.63,16.98-4.88,4.17-3.26,6.25-8.29,6.25-15.1v-48.84c0-2.17-.52-3.76-1.56-4.77-1.04-1.01-2.81-1.52-5.33-1.52h-10.06s0-9.4,0-9.4h39.74s0,9.4,0,9.4h-5.03c-2.42,0-4.14.51-5.18,1.52-1.04,1.01-1.55,2.6-1.55,4.77v49.06c0,11.45-3.58,20.08-10.76,25.9-7.18,5.82-17.11,8.73-29.78,8.73-13.12,0-23.36-2.91-30.71-8.73Z"></path><path class="cls-2" d="M604.67,179.67c-3.87-3.28-5.81-8.32-5.81-15.13v-39.52s-10.07,0-10.07,0v-8.66s4.88-.37,4.88-.37c2.96-.25,5.25-1.33,6.88-3.26,1.63-1.92,2.71-5.03,3.26-9.32l1.11-8.66h18.43s0,20.87,0,20.87h19.46s0,9.4,0,9.4h-19.46s0,36.63,0,36.63c0,2.42.63,4.28,1.89,5.59,1.26,1.31,3,1.96,5.22,1.96s3.89-.62,5.29-1.85c1.41-1.23,2.55-3.21,3.44-5.92l5.48,2.44c-1.38,6.81-4.11,11.96-8.18,15.47-4.07,3.5-9.36,5.25-15.87,5.25-6.76,0-12.07-1.64-15.95-4.92Z"></path><path class="cls-2" d="M659.1,182.33c-2.66-1.5-4.66-3.5-5.99-5.99-1.33-2.49-2-5.24-2-8.25,0-4.78,1.43-8.69,4.29-11.73,2.86-3.03,7.55-5.39,14.06-7.07l18.35-4.66v-7.18c0-4.69-.9-8.31-2.7-10.88-1.8-2.56-4.4-3.85-7.81-3.85-2.17,0-3.87.51-5.11,1.52-1.23,1.01-1.85,2.41-1.85,4.18,0,.64.2,1.65.59,3.03.15.59.3,1.23.44,1.92.15.69.22,1.36.22,2,0,2.22-.92,4.07-2.77,5.55-1.85,1.48-4.06,2.22-6.62,2.22-2.91,0-5.34-.8-7.29-2.4-1.95-1.6-2.92-4.01-2.92-7.21,0-3.8,1.49-7.19,4.48-10.18,2.98-2.98,6.99-5.32,12.02-6.99,5.03-1.68,10.53-2.52,16.5-2.52,8.98,0,15.77,1.84,20.39,5.51,4.61,3.68,6.92,9.19,6.92,16.54v29.82c0,1.83.29,3.16.85,4,.57.84,1.44,1.26,2.63,1.26,2.12,0,3.8-1.7,5.03-5.11l4.74,2c-.74,4-2.16,7.23-4.25,9.69-2.1,2.47-4.53,4.23-7.29,5.29-2.76,1.06-5.58,1.59-8.44,1.59-4.39,0-7.92-.88-10.58-2.63-2.66-1.75-4.84-4.6-6.51-8.55h-.67c-2.32,3.75-4.96,6.58-7.92,8.47-2.96,1.9-6.64,2.85-11.03,2.85-3.85,0-7.1-.75-9.77-2.26ZM676.6,168.49c1.06,1.36,2.58,2.04,4.55,2.04,2.07,0,3.7-.64,4.88-1.92,1.18-1.28,1.78-2.98,1.78-5.11v-12.65s-4.59,1.48-4.59,1.48c-3.11,1.14-5.25,2.54-6.44,4.22-1.18,1.68-1.78,3.8-1.78,6.36,0,2.37.53,4.23,1.59,5.59Z"></path><path class="cls-2" d="M727.62,173.41h2.52c1.92,0,3.28-.41,4.07-1.22.79-.81,1.18-2.16,1.18-4.03v-68.38c0-1.87-.4-3.22-1.19-4.03-.79-.81-2.15-1.22-4.07-1.22h-2.52v-9.4s32.12,0,32.12,0v42.4h.67c2.71-4.34,5.83-7.71,9.36-10.1,3.53-2.39,7.81-3.59,12.84-3.59,6.81,0,12.22,2,16.24,5.99,4.02,4,6.03,9.79,6.03,17.39v30.93c0,1.88.38,3.22,1.15,4.03.76.81,2.11,1.22,4.03,1.22h2.52v9.4s-39.22,0-39.22,0v-9.4s2.07,0,2.07,0c1.82,0,3.12-.41,3.89-1.22.76-.81,1.15-2.16,1.15-4.03v-26.34c0-3.9-.88-6.77-2.63-8.62-1.75-1.85-4.21-2.77-7.36-2.77-7.15,0-10.73,3.97-10.73,11.91v25.83c0,1.83.38,3.16,1.15,4,.76.84,2.08,1.26,3.96,1.26h2v9.4s-39.22,0-39.22,0v-9.4Z"></path><path class="cls-2" d="M877.73,178.17c-7.97-4.22-14.27-10.16-18.91-17.83-4.64-7.67-6.96-16.46-6.96-26.38,0-9.92,2.32-18.71,6.95-26.38,4.64-7.67,10.94-13.62,18.91-17.84,7.97-4.22,16.74-6.33,26.31-6.33,9.57,0,18.32,2.11,26.23,6.33,7.92,4.22,14.2,10.16,18.83,17.83,4.64,7.67,6.96,16.46,6.96,26.38,0,9.92-2.32,18.71-6.95,26.38-4.64,7.67-10.91,13.62-18.83,17.84s-16.66,6.33-26.23,6.33c-9.57,0-18.34-2.11-26.31-6.33ZM922.87,163.85c4.37-6.96,6.55-16.92,6.55-29.9,0-12.97-2.18-22.94-6.55-29.9-4.37-6.96-10.64-10.43-18.83-10.43-8.24,0-14.54,3.47-18.91,10.4-4.37,6.93-6.55,16.91-6.55,29.93,0,13.02,2.18,23,6.55,29.93,4.37,6.93,10.67,10.4,18.91,10.4,8.19,0,14.47-3.48,18.83-10.44Z"></path><path class="cls-2" d="M964.56,173.39h2.52c1.92,0,3.27-.41,4.03-1.22.76-.81,1.15-2.16,1.15-4.03v-43.14s-9.92,0-9.92,0v-9.4s9.92,0,9.92,0v-1.55c0-5.28,1.33-10.04,4-14.28,2.66-4.24,6.51-7.59,11.54-10.03,5.03-2.44,10.98-3.66,17.83-3.66,5.03,0,9.48.74,13.36,2.22,3.87,1.48,6.77,3.48,8.69,5.99,3.4-3.5,7.76-6.25,13.06-8.25,5.3-2,11.29-3,17.95-3,6.02,0,11.26.67,15.72,2,4.46,1.33,7.89,3.21,10.29,5.62,2.39,2.42,3.59,5.25,3.59,8.51,0,2.66-.94,4.92-2.81,6.77-1.88,1.85-4.51,2.78-7.92,2.78-3.45,0-6.03-.75-7.73-2.26-1.7-1.5-2.55-3.32-2.55-5.44,0-1.18.25-2.47.74-3.85.34-.89.52-1.6.52-2.15,0-2.07-2.17-3.11-6.51-3.11-3.31,0-6.28.78-8.92,2.33-2.64,1.55-4.72,3.81-6.25,6.77-1.53,2.96-2.29,6.51-2.29,10.66v3.92s47.29,0,47.29,0l.59,52.54c.05,1.88.46,3.22,1.22,4.03.76.81,2.11,1.22,4.03,1.22h2.52s0,9.4,0,9.4h-39.89s0-9.4,0-9.4h2.52c1.92,0,3.28-.41,4.07-1.22.79-.81,1.18-2.16,1.18-4.03v-37.89c0-1.87-.4-3.22-1.19-4.03-.79-.81-2.15-1.22-4.07-1.22h-18.28s-.07,43.14-.07,43.14c0,1.88.39,3.22,1.18,4.03.79.81,2.15,1.22,4.07,1.22h4s0,9.4,0,9.4h-41.37s0-9.4,0-9.4h2.52c1.92,0,3.27-.41,4.03-1.22.76-.81,1.15-2.16,1.15-4.03v-43.14s-23.31,0-23.31,0l-.07,43.14c0,1.88.38,3.22,1.15,4.03.76.81,2.13,1.22,4.11,1.22h3.33v9.4s-40.7,0-40.7,0v-9.4ZM1020.06,115.59v-2.52c0-1.58.15-3.18.44-4.81-2.27-.2-4-.84-5.18-1.92-1.18-1.08-1.78-2.37-1.78-3.85,0-.59.07-1.16.22-1.7.15-.54.3-1.01.44-1.41.3-.89.44-1.48.44-1.78,0-.84-.46-1.49-1.37-1.96-.91-.47-2.28-.7-4.11-.7-3.65,0-6.64,1.36-8.95,4.07-2.32,2.71-3.48,6.66-3.48,11.84v4.74s23.31,0,23.31,0Z"></path><path class="cls-2" d="M1123.48,180.52c-4.96-2.69-8.86-6.55-11.69-11.58-2.84-5.03-4.26-10.93-4.26-17.69,0-7.3,1.65-13.8,4.96-19.5,3.3-5.7,7.74-10.11,13.32-13.25,5.57-3.13,11.64-4.7,18.2-4.7,4.54,0,8.73.81,12.58,2.44,3.85,1.63,6.91,3.9,9.18,6.81,2.27,2.91,3.4,6.19,3.4,9.84,0,3.36-1.01,5.88-3.03,7.58-2.02,1.7-4.39,2.55-7.1,2.55-2.71,0-4.91-.75-6.59-2.26-1.68-1.5-2.52-3.46-2.52-5.88,0-.84.2-1.95.59-3.33.39-1.28.59-2.29.59-3.03,0-1.92-.58-3.38-1.74-4.37-1.16-.99-2.7-1.48-4.62-1.48-2.27,0-4.37.85-6.29,2.55s-3.44,4.05-4.55,7.03c-1.11,2.99-1.66,6.35-1.66,10.1,0,4.39.71,8.44,2.15,12.14,1.43,3.7,3.63,6.69,6.59,8.95,2.96,2.27,6.61,3.4,10.95,3.4,6.31,0,11.4-2.66,15.24-7.99l3.55,2c-1.97,7.2-5.58,12.95-10.8,17.24-5.23,4.29-11.82,6.44-19.76,6.44-6.17,0-11.73-1.34-16.69-4.03Z"></path><path class="cls-2" d="M1194.26,180.59c-5.08-2.64-9.1-6.46-12.06-11.47-2.96-5.01-4.44-10.91-4.44-17.72,0-7.25,1.53-13.73,4.59-19.42,3.06-5.7,7.3-10.15,12.73-13.36,5.43-3.21,11.54-4.81,18.35-4.81,5.62,0,10.61,1.12,14.95,3.37,4.34,2.25,7.73,5.55,10.18,9.92,2.44,4.37,3.66,9.63,3.66,15.8,0,1.48-.07,3.03-.22,4.66h-41.29c.49,6.37,2.54,11.32,6.14,14.88,3.6,3.55,8.39,5.33,14.36,5.33,4.04,0,7.61-.81,10.69-2.44,3.08-1.63,5.61-3.75,7.58-6.36l3.48,1.85c-.99,4.19-2.76,8.08-5.33,11.66-2.57,3.58-6.06,6.49-10.47,8.73-4.42,2.24-9.68,3.37-15.8,3.37-6.32,0-12.01-1.32-17.09-3.96ZM1221.56,139.11c.1-5.38-.64-9.47-2.22-12.28-1.58-2.81-3.85-4.22-6.81-4.22-3.21,0-5.83,1.36-7.88,4.07-2.05,2.71-3.32,6.86-3.81,12.43h20.72Z"></path><path class="cls-2" d="M1300.96,181.07c-4.84-2.32-8.67-5.73-11.51-10.25-2.84-4.51-4.26-9.9-4.26-16.17,0-7.1,1.89-13.79,5.66-20.05,3.77-6.26,8.85-11.29,15.24-15.06,6.39-3.77,13.33-5.66,20.83-5.66,5.72,0,10.99,1.2,15.8,3.59,4.81,2.39,8.62,5.82,11.43,10.29,2.81,4.47,4.22,9.63,4.22,15.5,0,7.3-1.85,14.12-5.55,20.46-3.7,6.34-8.71,11.4-15.02,15.17-6.32,3.77-13.2,5.66-20.65,5.66-5.97,0-11.37-1.16-16.21-3.48ZM1327.01,168.26c2.17-4.09,3.75-8.89,4.74-14.39.99-5.5,1.48-10.4,1.48-14.69,0-5.23-.78-9.07-2.33-11.51-1.55-2.44-3.54-3.66-5.96-3.66-3.45,0-6.29,2.05-8.51,6.14-2.22,4.1-3.81,8.88-4.77,14.36-.96,5.48-1.44,10.41-1.44,14.8,0,5.23.78,9.05,2.33,11.47,1.55,2.42,3.61,3.63,6.18,3.63,3.35,0,6.12-2.05,8.29-6.14ZM1346.03,211.15c-3.06-1.06-5.48-2.55-7.25-4.48s-2.66-4.12-2.66-6.59c0-2.17.7-3.91,2.11-5.22,1.41-1.31,3.19-1.96,5.36-1.96,1.92,0,3.47.52,4.63,1.55,1.16,1.04,2.38,2.54,3.66,4.51,1.13,1.68,2.15,2.93,3.03,3.77.89.84,2,1.26,3.33,1.26,1.97,0,3.49-.72,4.55-2.15,1.06-1.43,1.86-3.87,2.4-7.33l10.43-69.56h-10.14s1.7-9.4,1.7-9.4h9.84s.15-.81.15-.81c.94-6.31,3.08-11.86,6.44-16.65,3.35-4.79,7.61-8.5,12.76-11.14,5.15-2.64,10.89-3.96,17.21-3.96,4,0,7.54.59,10.62,1.78,3.08,1.18,5.5,2.87,7.25,5.07,1.75,2.2,2.63,4.72,2.63,7.58,0,2.62-.85,4.85-2.55,6.7-1.7,1.85-4.03,2.77-6.99,2.77-2.37,0-4.24-.55-5.62-1.66-1.38-1.11-2.07-2.58-2.07-4.4,0-.99.25-2.17.74-3.55.44-1.08.67-2,.67-2.74s-.33-1.37-1-1.89c-.67-.52-1.52-.78-2.55-.78-2.71,0-5.11,1.25-7.18,3.74-2.07,2.49-3.55,6.18-4.44,11.06l-1.63,8.88h16.5s-1.7,9.4-1.7,9.4h-16.5s-10.06,55.5-10.06,55.5c-1.78,10.06-5.35,17.96-10.73,23.68-5.38,5.72-12.95,8.58-22.72,8.59-3.75,0-7.15-.53-10.21-1.59Z"></path><path class="cls-2" d="M478.25,351.02h4.96c2.42,0,4.14-.51,5.18-1.52,1.04-1.01,1.55-2.6,1.55-4.77v-66.3c0-2.17-.52-3.76-1.56-4.77-1.04-1.01-2.76-1.52-5.18-1.52h-4.96v-9.4s44.47,0,44.47,0c10.95,0,21.03,1.49,30.23,4.47,9.2,2.99,16.74,8.1,22.61,15.35,5.87,7.25,8.81,16.87,8.81,28.86,0,12.09-2.93,21.77-8.8,29.05-5.87,7.28-13.42,12.42-22.64,15.43-9.23,3.01-19.29,4.51-30.19,4.52h-44.47s0-9.4,0-9.4ZM541.86,347.24c4.81-2.52,8.76-6.72,11.84-12.62,3.08-5.89,4.62-13.63,4.62-23.2,0-9.72-1.53-17.49-4.59-23.31-3.06-5.82-6.98-9.94-11.77-12.36-4.79-2.42-9.99-3.62-15.61-3.62h-10.66s0,72.59,0,72.59c0,2.22.48,3.82,1.44,4.81.96.99,2.7,1.48,5.22,1.48h4c5.52,0,10.69-1.26,15.5-3.78Z"></path><path class="cls-2" d="M600.87,359.93c-2.66-1.5-4.66-3.5-5.99-5.99-1.33-2.49-2-5.24-2-8.25,0-4.78,1.43-8.69,4.29-11.73,2.86-3.03,7.55-5.39,14.06-7.07l18.35-4.66v-7.18c0-4.69-.9-8.31-2.7-10.88-1.8-2.56-4.4-3.85-7.81-3.85-2.17,0-3.87.51-5.11,1.52-1.23,1.01-1.85,2.4-1.85,4.18,0,.64.2,1.65.59,3.03.15.59.3,1.23.44,1.92.15.69.22,1.36.22,2,0,2.22-.92,4.07-2.77,5.55s-4.06,2.22-6.62,2.22c-2.91,0-5.34-.8-7.29-2.4-1.95-1.6-2.92-4.01-2.92-7.21,0-3.8,1.49-7.19,4.48-10.18,2.98-2.98,6.99-5.32,12.02-6.99,5.03-1.68,10.53-2.52,16.5-2.52,8.98,0,15.77,1.84,20.39,5.51,4.61,3.68,6.92,9.19,6.92,16.54v29.82c0,1.83.29,3.16.85,4,.57.84,1.44,1.26,2.63,1.26,2.12,0,3.8-1.7,5.03-5.11l4.74,2c-.74,4-2.16,7.23-4.25,9.69-2.1,2.47-4.53,4.23-7.29,5.29-2.76,1.06-5.58,1.59-8.44,1.59-4.39,0-7.92-.88-10.58-2.63s-4.84-4.6-6.51-8.55h-.67c-2.32,3.75-4.96,6.57-7.92,8.47-2.96,1.9-6.64,2.85-11.03,2.85-3.85,0-7.1-.75-9.77-2.26ZM618.37,346.09c1.06,1.36,2.58,2.03,4.55,2.03,2.07,0,3.7-.64,4.88-1.92,1.18-1.28,1.78-2.98,1.78-5.11v-12.65s-4.59,1.48-4.59,1.48c-3.11,1.14-5.25,2.54-6.44,4.22-1.18,1.68-1.78,3.8-1.78,6.36,0,2.37.53,4.23,1.59,5.59Z"></path><path class="cls-2" d="M681.27,357.26c-3.87-3.28-5.81-8.32-5.81-15.13v-39.52h-10.07v-8.66s4.88-.37,4.88-.37c2.96-.25,5.25-1.33,6.88-3.26,1.63-1.92,2.71-5.03,3.26-9.32l1.11-8.66h18.43s0,20.87,0,20.87h19.46s0,9.4,0,9.4h-19.46s0,36.63,0,36.63c0,2.42.63,4.28,1.89,5.59,1.26,1.31,3,1.96,5.22,1.96s3.89-.62,5.29-1.85c1.41-1.23,2.55-3.21,3.44-5.92l5.48,2.44c-1.38,6.81-4.11,11.96-8.18,15.47-4.07,3.5-9.36,5.25-15.87,5.25-6.76,0-12.07-1.64-15.95-4.92Z"></path><path class="cls-2" d="M735.7,359.92c-2.66-1.5-4.66-3.5-5.99-5.99-1.33-2.49-2-5.24-2-8.25,0-4.78,1.43-8.7,4.29-11.73,2.86-3.03,7.55-5.39,14.06-7.07l18.35-4.66v-7.18c0-4.69-.9-8.31-2.7-10.88-1.8-2.56-4.4-3.85-7.81-3.85-2.17,0-3.87.51-5.11,1.52-1.23,1.01-1.85,2.4-1.85,4.18,0,.64.2,1.65.59,3.03.15.59.3,1.23.44,1.92.15.69.22,1.36.22,2,0,2.22-.92,4.07-2.77,5.55-1.85,1.48-4.06,2.22-6.62,2.22-2.91,0-5.34-.8-7.29-2.4-1.95-1.6-2.92-4.01-2.92-7.21,0-3.8,1.49-7.19,4.48-10.18,2.98-2.98,6.99-5.32,12.02-6.99,5.03-1.68,10.53-2.52,16.5-2.52,8.98,0,15.77,1.84,20.39,5.51,4.61,3.68,6.92,9.19,6.92,16.54v29.82c0,1.83.29,3.16.85,4,.57.84,1.44,1.26,2.63,1.26,2.12,0,3.8-1.7,5.03-5.11l4.74,2c-.74,4-2.16,7.23-4.25,9.69-2.1,2.47-4.53,4.23-7.29,5.29-2.76,1.06-5.58,1.59-8.44,1.59-4.39,0-7.92-.88-10.58-2.63-2.66-1.75-4.84-4.6-6.51-8.55h-.67c-2.32,3.75-4.96,6.57-7.92,8.47-2.96,1.9-6.64,2.85-11.03,2.85-3.85,0-7.1-.75-9.77-2.26ZM753.2,346.08c1.06,1.36,2.58,2.04,4.55,2.04,2.07,0,3.7-.64,4.88-1.92,1.18-1.28,1.78-2.98,1.78-5.11v-12.65s-4.59,1.48-4.59,1.48c-3.11,1.14-5.25,2.54-6.44,4.22-1.18,1.68-1.78,3.8-1.78,6.36,0,2.37.53,4.23,1.59,5.59Z"></path><path class="cls-2" d="M838.92,351h4.96c2.42,0,4.14-.51,5.18-1.52,1.04-1.01,1.55-2.6,1.55-4.77v-66.3c0-2.17-.52-3.76-1.56-4.77-1.04-1.01-2.76-1.52-5.18-1.52h-4.96s0-9.4,0-9.4h53.87c10.16,0,18.55,2.14,25.16,6.43,6.61,4.29,9.92,11.45,9.92,21.46,0,10.16-3.45,17.5-10.36,22.02-6.91,4.51-15.84,6.77-26.79,6.77h-14.36s0,25.31,0,25.31c0,2.17.51,3.76,1.52,4.77,1.01,1.01,2.73,1.52,5.14,1.52h6.51s0,9.4,0,9.4h-50.62s0-9.4,0-9.4ZM884.36,310.52c5.82-.05,10.24-1.53,13.25-4.44,3.01-2.91,4.51-7.97,4.51-15.17,0-4.83-.72-8.63-2.15-11.4-1.43-2.76-3.43-4.69-5.99-5.77-2.57-1.08-5.77-1.63-9.62-1.63h-7.99s0,38.41,0,38.41h7.99Z"></path><path class="cls-2" d="M935.71,350.99h2.52c1.92,0,3.27-.41,4.03-1.22.76-.81,1.15-2.16,1.15-4.03v-37.89c0-1.87-.39-3.22-1.15-4.03-.77-.81-2.11-1.22-4.03-1.22h-2.52s0-9.4,0-9.4h31.97s0,14.13,0,14.13h.59c3.16-5.23,6.28-9.19,9.36-11.88,3.08-2.69,6.65-4.03,10.69-4.03,1.78,0,3.42.44,4.92,1.33,1.5.89,2.7,2.16,3.59,3.81.89,1.65,1.33,3.56,1.33,5.73,0,1.88-.38,3.66-1.15,5.37-.77,1.7-1.83,3.1-3.18,4.18-1.36,1.09-2.9,1.63-4.62,1.63-1.09,0-2.12-.17-3.11-.52-.99-.34-2.05-.84-3.18-1.48-1.18-.59-2.18-1.04-3-1.33s-1.69-.44-2.63-.44c-1.48,0-2.94.48-4.37,1.44-1.43.96-2.63,2.58-3.59,4.85-.96,2.27-1.44,5.28-1.44,9.03v20.72c0,1.88.38,3.22,1.15,4.03.76.81,2.11,1.22,4.03,1.22h5.18s0,9.4,0,9.4h-42.55s0-9.4,0-9.4Z"></path><path class="cls-2" d="M1002.53,350.99h2.52c1.92,0,3.27-.41,4.03-1.22.76-.81,1.15-2.16,1.15-4.03v-37.89c0-1.87-.39-3.22-1.15-4.03-.77-.81-2.11-1.22-4.03-1.22h-2.52v-9.4s32.19,0,32.19,0v52.54c0,1.88.38,3.22,1.15,4.03.76.81,2.11,1.22,4.03,1.22h2.52s0,9.4,0,9.4h-39.89s0-9.4,0-9.4ZM1013.56,284.17c-2.12-1.13-3.74-2.68-4.85-4.62-1.11-1.95-1.67-4.13-1.67-6.55,0-2.37.56-4.53,1.67-6.48,1.11-1.95,2.73-3.49,4.85-4.63,2.12-1.13,4.61-1.7,7.47-1.7,2.91,0,5.43.57,7.55,1.7,2.12,1.14,3.74,2.66,4.85,4.59,1.11,1.92,1.67,4.1,1.67,6.51,0,2.42-.55,4.6-1.66,6.55-1.11,1.95-2.73,3.49-4.85,4.63-2.12,1.14-4.64,1.7-7.55,1.7s-5.35-.57-7.47-1.7Z"></path><path class="cls-2" d="M1051.56,303.81c-1.06-.81-2.58-1.22-4.55-1.22h-2v-9.4s43.29,0,43.29,0v9.4s-4.44,0-4.44,0c-2.71,0-4.07,1.01-4.07,3.03,0,.94.2,1.9.59,2.89l11.32,30.04,11.32-30.12c.44-1.13.67-2.1.67-2.89,0-1.97-1.38-2.96-4.14-2.96h-4.37s0-9.4,0-9.4h29.45s0,9.4,0,9.4h-2c-1.97,0-3.49.41-4.55,1.22-1.06.81-1.96,2.13-2.7,3.96l-20.57,52.62h-20.05s-20.5-52.54-20.5-52.54c-.74-1.87-1.64-3.22-2.7-4.03Z"></path><path class="cls-2" d="M1137.22,359.9c-2.66-1.5-4.66-3.5-5.99-5.99-1.33-2.49-2-5.24-2-8.25,0-4.78,1.43-8.69,4.29-11.73,2.86-3.03,7.55-5.39,14.06-7.07l18.35-4.66v-7.18c0-4.69-.9-8.31-2.7-10.88-1.8-2.56-4.4-3.85-7.81-3.85-2.17,0-3.87.51-5.11,1.52-1.23,1.01-1.85,2.4-1.85,4.18,0,.64.2,1.65.59,3.03.15.59.3,1.23.44,1.92.15.69.22,1.36.22,2,0,2.22-.92,4.07-2.77,5.55-1.85,1.48-4.06,2.22-6.62,2.22-2.91,0-5.34-.8-7.29-2.4-1.95-1.6-2.92-4.01-2.92-7.21,0-3.8,1.49-7.19,4.48-10.18,2.98-2.98,6.99-5.32,12.02-6.99,5.03-1.68,10.53-2.52,16.5-2.52,8.98,0,15.77,1.84,20.39,5.51,4.61,3.68,6.92,9.19,6.92,16.54v29.82c0,1.83.29,3.16.85,4s1.44,1.26,2.63,1.26c2.12,0,3.8-1.7,5.03-5.11l4.74,2c-.74,4-2.16,7.23-4.25,9.69-2.1,2.47-4.53,4.23-7.29,5.29-2.76,1.06-5.58,1.59-8.44,1.59-4.39,0-7.92-.88-10.58-2.63-2.66-1.75-4.84-4.6-6.51-8.55h-.67c-2.32,3.75-4.96,6.57-7.92,8.47-2.96,1.9-6.64,2.85-11.03,2.85-3.85,0-7.1-.75-9.77-2.26ZM1154.72,346.06c1.06,1.36,2.58,2.03,4.55,2.03,2.07,0,3.7-.64,4.88-1.92,1.18-1.28,1.78-2.98,1.78-5.11v-12.65s-4.59,1.48-4.59,1.48c-3.11,1.14-5.25,2.54-6.44,4.22-1.18,1.68-1.78,3.8-1.78,6.36,0,2.37.53,4.23,1.59,5.59Z"></path><path class="cls-2" d="M1221.69,358.12c-4.96-2.69-8.86-6.55-11.69-11.58-2.84-5.03-4.26-10.93-4.26-17.69,0-7.3,1.65-13.8,4.96-19.5,3.3-5.7,7.74-10.11,13.32-13.25,5.57-3.13,11.64-4.7,18.2-4.7,4.54,0,8.73.81,12.58,2.44,3.85,1.63,6.91,3.9,9.18,6.81,2.27,2.91,3.4,6.19,3.4,9.84,0,3.36-1.01,5.88-3.03,7.59-2.02,1.7-4.39,2.55-7.1,2.55s-4.91-.75-6.59-2.26c-1.68-1.5-2.52-3.46-2.52-5.88,0-.84.2-1.95.59-3.33.39-1.28.59-2.29.59-3.03,0-1.92-.58-3.38-1.74-4.37-1.16-.99-2.7-1.48-4.62-1.48-2.27,0-4.37.85-6.29,2.55-1.92,1.7-3.44,4.05-4.55,7.03-1.11,2.99-1.66,6.35-1.66,10.1,0,4.39.71,8.44,2.15,12.14,1.43,3.7,3.63,6.69,6.59,8.95,2.96,2.27,6.61,3.4,10.95,3.4,6.31,0,11.4-2.66,15.24-7.99l3.55,2c-1.97,7.2-5.57,12.95-10.8,17.24-5.23,4.29-11.81,6.44-19.76,6.44-6.17,0-11.73-1.34-16.69-4.03Z"></path><path class="cls-2" d="M1283.7,388.38c-2.74-2.25-4.11-5.22-4.11-8.92,0-2.86.86-5.18,2.59-6.96,1.73-1.78,4-2.66,6.81-2.66,2.32,0,4.26.7,5.81,2.11,1.55,1.41,2.33,3.07,2.33,4.99,0,.59-.12,1.22-.37,1.89-.25.67-.37,1.17-.37,1.52,0,.49.2.9.59,1.22.39.32.91.48,1.55.48,1.04,0,2.01-.47,2.92-1.41.91-.94,1.84-2.59,2.77-4.96l3.92-9.55-24.5-58.09c-.84-1.97-1.81-3.38-2.92-4.22-1.11-.84-2.68-1.26-4.7-1.26h-2v-9.4s43.29,0,43.29,0v9.4s-4.51,0-4.51,0c-1.38,0-2.4.21-3.07.63-.67.42-1,1.12-1,2.11,0,.74.27,1.8.81,3.18l11.4,27.75,11.1-27.75c.49-1.18.74-2.22.74-3.11,0-1.87-1.33-2.81-4-2.81h-4.44s0-9.4,0-9.4h29.45s0,9.4,0,9.4h-2.07c-1.97,0-3.48.42-4.51,1.26-1.04.84-1.97,2.22-2.81,4.14l-28.78,68.16c-2.22,5.23-4.88,9.14-7.99,11.73s-7.18,3.89-12.21,3.89c-5.08,0-8.99-1.12-11.73-3.37Z"></path></g><g class="cls-3"><path class="cls-2" d="M259.67,117.75l-2.25-.8,2.79-7.86,2.23.79c2.28.81,3.51,2.18,2.39,5.33-1.07,3.02-2.9,3.34-5.16,2.53h0ZM140.73,121.95l.8-.17c3.48-.75,6.84-3.86,5.24-11.35-1.65-7.74-5.93-8.97-9.41-8.22l-2.5.53,3.84,18c.23,1.05.68,1.5,2.03,1.22h0ZM187.52,27.77l163.45,94.38v188.75l-163.45,94.37L24.06,310.89V122.14L187.52,27.77ZM146.37,164.52c6.07,1.75,20.15,3.57,41.18,3.57s34.93-1.8,41.07-3.54c-23.71-23.23-58.54-23.23-82.25-.03h0ZM187.56,175.43c-12.63,0-24.44-.68-33.23-1.89-6.2-.86-10.59-1.93-13.51-3.34-5.51,6.16-10.22,12.93-14.12,20.15,21.37,9.78,100.09,9.77,121.62.06-3.93-7.25-8.64-14.05-14.17-20.23-5.72,2.73-18.41,5.24-46.58,5.24h0ZM158.42,95.52l.16,2.66,1.13-.07c1.3-.08,1.78.43,1.84,1.5l.75,12.47c.38,6.2,4.88,8.76,11.55,8.35,6.45-.39,10.57-3.47,10.2-9.67l-.75-12.47c-.06-1.07.32-1.64,1.63-1.71l1.13-.07-.16-2.66-10.32.62.16,2.66,2.61-.16c1.31-.08,1.76.43,1.82,1.5l.75,12.37c.21,3.55-2.15,5-5.38,5.19-3.22.2-5.54-.97-5.76-4.52l-.74-12.37c-.06-1.07.33-1.64,1.63-1.71l1.13-.07-.16-2.66-13.21.8h0ZM124.16,102.28l.55,2.62,1.11-.24c1.28-.27,1.82.17,2.04,1.21l3.5,16.42c.23,1.05-.09,1.67-1.37,1.94l-1.11.24.56,2.61,11.51-2.46c7.59-1.62,15.3-5.98,13.2-15.79-2.09-9.8-10.89-10.64-18.5-9.02l-11.51,2.46h0ZM123.39,196.93c-3.3,7.18-5.82,14.72-7.59,22.45,15.3,10.26,128.38,10.16,143.36,0-1.77-7.71-4.29-15.24-7.57-22.4-3.91,1.99-9.73,3.58-17.69,4.88-23.93,4.11-68.77,4.11-92.7,0-8.04-1.32-13.9-2.92-17.81-4.94h0ZM114.2,226.68l-4.66,21.34h.02c15.7,13.75,139.98,13.79,155.85.01h.02s-4.66-21.34-4.66-21.34c-26.32,10.64-120.15,10.67-146.58,0h0ZM96.36,140.17l-1.25-2.37-1,.54c-1.16.61-1.78.33-2.29-.62l-7.84-14.86c-.5-.95-.38-1.62.77-2.23l1-.53-1.25-2.37-11.71,6.18,1.25,2.37,1-.54c1.16-.61,1.79-.34,2.3.61l7.84,14.86c.5.95.36,1.63-.79,2.24l-1,.52,1.25,2.37,11.71-6.18h0ZM100.04,138.04l9.87-3.77-.95-2.49-2.66,1.02c-1.22.47-1.81.12-2.19-.9l-5.37-14.05.16-.06,18.27,13.71,5.73-2.19-7.54-19.69c-.38-1.01-.18-1.66,1.04-2.13l1.06-.41-.95-2.5-9.86,3.77.96,2.49,2.66-1.02c1.22-.47,1.81-.12,2.19.88l4.19,10.95-.16.06-15.12-11.35-10.37,3.97.96,2.5,1.06-.41c1.22-.47,1.83-.12,2.21.89l6,15.69c.38,1,.16,1.67-1.06,2.13l-1.06.41.96,2.5h0ZM151.62,341.37h-3.77c-1.54,0-2.07-.64-2.07-1.96v-19.03h-5.61c-2.53,2.78-4.74,3.98-9.38,4.62v2.71c2.53-.16,4.32-.37,5.66-.57.98-.16,1.52.23,1.52,1.29v10.99c0,1.31-.52,1.96-2.09,1.96h-3.79v2.92h19.54v-2.92h0ZM181.48,334.5c0-4.3-3.45-6.81-6.83-7.98,2.64-.81,5.54-2.46,5.54-5.8,0-4.3-4.35-7.33-11.15-7.33s-11.75,3.45-11.75,9.79c0,3.49,2.62,6.27,5.91,7.75-3.36.78-6.59,2.66-6.59,6.34,0,4.32,4.87,7.57,11.91,7.57s12.96-3.43,12.96-10.35h0ZM211.73,333.26c0-6.56-3.43-13.43-12.56-13.43-7.38,0-12.04,4.57-12.04,10.67,0,5.45,3.84,9.29,9.1,9.29,3.74,0,6.53-1.73,7.82-4.55-.14,5.84-3.5,12.3-14.14,15.61l.46,2.09c14.41-2.39,21.36-9.27,21.36-19.68h0ZM242.07,334.68c0-4.97-3.84-8.81-9.1-8.81-3.68,0-6.42,1.66-7.72,3.93.02-8.33,5.93-14.37,16.67-13.7l-.41-2.16c-1.52-.39-3.05-.53-4.42-.53-10.62,0-19.67,7.43-19.67,18.16,0,7.18,3.68,13.27,12.74,13.27,7.26,0,11.93-4.57,11.93-10.16h0ZM270.66,272l-3.52-16.11c-24.59,13.11-134.58,13.16-159.33,0l-3.52,16.11c-.57,2.58.1,5.31,1.94,7.22,7.1,7.39,29.26,11.99,55.12,13.81,7.22-.02,11.84-4.94,13.07-10.83,3.02-14.41,23.21-14.41,26.23,0,1.23,5.87,5.82,10.77,12.99,10.83,24.74-2.06,59.87-6.45,57.01-21.02h0ZM276.34,140.13l11.71,6.16,1.32-2.52-1-.52c-1.18-.62-1.36-1.13-.86-2.09l3.27-6.22,10.67-5.5c1.37-.71,1.96-.71,2.96-.18l.62.33,1.25-2.37-8.9-4.69-1.25,2.36,1.58.83c.91.49.89,1.19-.06,1.72l-6.46,3.61-.75-7.41c-.12-1.09.47-1.51,1.39-1.03l1.57.82,1.25-2.37-12.92-6.8-1.24,2.36.62.33c.99.52,1.34,1.01,1.53,2.54l1.5,11.91-3.27,6.22c-.5.96-1.13,1.23-2.28.62l-1-.53-1.25,2.37v.02ZM243.74,124.48l-.9,2.51,12.49,4.44.9-2.52-1.09-.38c-1.23-.44-1.45-1.09-1.09-2.1l2.52-7.1.93.33c1.85.66,2.03,1.52,1.99,3.36l-.13,5.25c-.09,3.34.91,4.91,4.43,6.16l4.64,1.64.89-2.51-.63-.23c-1.05-.38-1.42-1.07-1.5-2.25l-.38-4.96c-.27-3.5-1.55-4.94-3.23-5.7v-.04c2.64.52,7.23.44,8.63-3.46,1.53-4.29-2.07-7.16-6.84-8.85l-14.01-4.98-.89,2.51,1.07.38c1.23.44,1.46,1.1,1.1,2.11l-5.62,15.82c-.36,1.02-.96,1.37-2.19.93l-1.06-.38h0ZM218.05,104.9l2.39.48,1.15-2.62c1.08-2.49,2.42-2.89,4.7-2.43l1.25.25-3.59,18.05c-.22,1.05-.73,1.5-2.02,1.25l-1.12-.23-.53,2.62,13.01,2.59.55-2.79-1.13-.23c-1.28-.26-1.63-.7-1.41-1.75l3.59-18.06,1.25.25c2.28.45,3.36,1.33,3.41,4.05l.05,2.85,2.39.48,1.71-8.59-23.94-4.76-1.72,8.59h0ZM191.82,118.12c3.09,1.32,5.37,2.19,8.46,2.41,5.35.38,10.81-2.3,11.22-8.04.29-4.07-2.03-5.92-5.45-7.39l-3.56-1.54c-2.21-.95-3.23-1.79-3.09-3.67.12-1.71,1.69-2.75,3.98-2.58,2.3.16,3.81,1.41,4.72,4.54l.34,1.18,2.43.17.45-6.57c-2.91-1.32-5.19-2-7.68-2.18-5.46-.38-10.49,2.36-10.88,7.91-.27,3.75,2.18,6.2,5.94,7.76l3.61,1.49c2.07.86,2.68,1.71,2.58,3.16-.16,2.23-1.83,3.09-4.17,2.92-2.49-.18-4.78-1.57-5.94-5.31l-.38-1.24-2.41-.17-.16,7.16h0ZM375.02,108.25v216.52l-187.5,108.25L.02,324.77V108.25L187.52,0l187.5,108.25ZM364.85,114.13L187.52,11.75,10.19,114.13v204.77l177.33,102.38,177.33-102.38V114.13h0ZM170.17,333.44l-5.54-1.93c-1.45,1.38-2.09,2.73-2.09,4.37,0,3.61,2.35,5.73,6.69,5.73,4.11,0,6.02-2.12,6.02-4.18s-1.38-2.69-5.08-3.98h0ZM167.83,324.24l5.52,1.84c1.1-1.24,1.47-2.53,1.47-4,0-3.4-2.33-5.44-6.07-5.44s-5.24,1.58-5.24,3.68c0,1.79,1.36,2.95,4.32,3.93h0ZM230.05,329.26c-2.55,0-4.16,2.23-4.16,6.02,0,4,1.57,6.32,4.16,6.32s4.16-2.27,4.16-6.32c0-3.81-1.59-6.02-4.16-6.02h0ZM199.15,323.07c-2.58,0-4.16,2.27-4.16,6.83,0,4.28,1.58,6.48,4.16,6.48s4.13-2.23,4.13-6.55-1.54-6.76-4.13-6.76h0ZM199.15,323.07"></path></g></svg>