<?xml version="1.0"?> <svg xmlns="http://www.w3.org/2000/svg" xmlns:xlink="http://www.w3.org/1999/xlink" id="Templates" viewBox="0 0 2235.92 597.81"><defs><clipPath id="clippath"><rect class="cls-2" x=".01" y=".01" width="375" height="432.94"></rect></clipPath></defs><g><path class="cls-1" d="M478.33,172.07h4.96c2.42,0,4.14-.51,5.18-1.52,1.04-1.01,1.55-2.6,1.55-4.77v-66.3c0-2.17-.52-3.76-1.56-4.77-1.04-1.01-2.76-1.52-5.18-1.52h-4.96v-9.4s44.47,0,44.47,0c10.95,0,21.03,1.49,30.23,4.47,9.2,2.99,16.74,8.1,22.61,15.35,5.87,7.25,8.81,16.87,8.81,28.86,0,12.09-2.93,21.77-8.8,29.04-5.87,7.28-13.42,12.42-22.64,15.43-9.23,3.01-19.29,4.51-30.19,4.52h-44.47s0-9.4,0-9.4ZM541.93,168.3c4.81-2.52,8.76-6.72,11.84-12.62,3.08-5.89,4.62-13.63,4.62-23.2,0-9.72-1.53-17.49-4.59-23.31-3.06-5.82-6.98-9.94-11.77-12.36-4.79-2.42-9.99-3.62-15.61-3.62h-10.66s0,72.59,0,72.59c0,2.22.48,3.82,1.44,4.81.96.99,2.7,1.48,5.22,1.48h4c5.52,0,10.69-1.26,15.5-3.78Z"></path><path class="cls-1" d="M610.05,179.28c-5.08-2.64-9.1-6.46-12.06-11.47-2.96-5.01-4.44-10.92-4.44-17.72,0-7.25,1.53-13.73,4.59-19.43,3.06-5.7,7.3-10.15,12.73-13.36,5.43-3.21,11.54-4.81,18.35-4.81,5.62,0,10.61,1.12,14.95,3.37,4.34,2.25,7.73,5.55,10.18,9.92,2.44,4.37,3.66,9.63,3.66,15.8,0,1.48-.07,3.03-.22,4.66h-41.29c.49,6.37,2.54,11.32,6.14,14.88,3.6,3.55,8.39,5.33,14.36,5.33,4.04,0,7.61-.81,10.69-2.44,3.08-1.63,5.61-3.75,7.58-6.36l3.48,1.85c-.99,4.19-2.76,8.08-5.33,11.66-2.57,3.58-6.06,6.49-10.47,8.73-4.42,2.25-9.68,3.37-15.8,3.37-6.32,0-12.01-1.32-17.09-3.96ZM637.35,137.8c.1-5.38-.64-9.47-2.22-12.28-1.58-2.81-3.85-4.22-6.81-4.22-3.21,0-5.83,1.36-7.88,4.07-2.05,2.71-3.32,6.86-3.81,12.43h20.72Z"></path><path class="cls-1" d="M666.36,201.66h2.52c1.92,0,3.27-.41,4.03-1.22.76-.81,1.15-2.16,1.15-4.03v-67.49c0-1.87-.39-3.22-1.15-4.03-.77-.81-2.11-1.22-4.03-1.22h-2.52v-9.4s31.89,0,31.89,0v9.25h.59c5.28-7.3,12.01-10.95,20.2-10.95,4.78,0,9.19,1.28,13.21,3.85,4.02,2.57,7.23,6.33,9.62,11.28,2.39,4.96,3.59,10.89,3.59,17.8,0,7.25-1.53,13.74-4.59,19.46-3.06,5.72-7.28,10.2-12.65,13.43-5.38,3.23-11.45,4.85-18.2,4.85-3.95,0-7.77-.59-11.47-1.78v14.95c0,1.87.38,3.22,1.15,4.03.76.81,2.11,1.22,4.03,1.22h5.18s0,9.4,0,9.4h-42.55s0-9.4,0-9.4ZM701.29,170.69c1.82,2.39,4.24,3.59,7.25,3.59,2.37,0,4.46-.84,6.29-2.52,1.82-1.68,3.28-4.27,4.37-7.77,1.08-3.5,1.63-7.84,1.63-13.02,0-5.13-.59-9.52-1.78-13.17-1.18-3.65-2.81-6.4-4.88-8.25-2.07-1.85-4.44-2.77-7.1-2.77-1.68,0-3.21.31-4.59.93-1.38.62-2.69,1.62-3.92,3v29.23c0,4.79.91,8.37,2.74,10.77Z"></path><path class="cls-1" d="M760.86,180.97c-2.66-1.5-4.66-3.5-5.99-5.99-1.33-2.49-2-5.24-2-8.25,0-4.79,1.43-8.7,4.29-11.73,2.86-3.03,7.55-5.39,14.06-7.07l18.35-4.66v-7.18c0-4.69-.9-8.31-2.7-10.88-1.8-2.56-4.4-3.85-7.81-3.85-2.17,0-3.87.51-5.11,1.52-1.23,1.01-1.85,2.41-1.85,4.18,0,.64.2,1.65.59,3.03.15.59.3,1.23.44,1.92.15.69.22,1.36.22,2,0,2.22-.92,4.07-2.77,5.55-1.85,1.48-4.06,2.22-6.62,2.22-2.91,0-5.34-.8-7.29-2.4-1.95-1.6-2.92-4.01-2.92-7.21,0-3.8,1.49-7.19,4.48-10.18,2.98-2.98,6.99-5.31,12.02-6.99,5.03-1.68,10.53-2.52,16.5-2.52,8.98,0,15.77,1.84,20.39,5.51,4.61,3.67,6.92,9.19,6.92,16.54v29.82c0,1.83.29,3.16.85,4,.57.84,1.44,1.26,2.63,1.26,2.12,0,3.8-1.7,5.03-5.11l4.74,2c-.74,4-2.16,7.23-4.25,9.69-2.1,2.47-4.53,4.23-7.29,5.29-2.76,1.06-5.58,1.59-8.44,1.59-4.39,0-7.92-.88-10.58-2.63-2.66-1.75-4.84-4.6-6.51-8.55h-.67c-2.32,3.75-4.96,6.57-7.92,8.47-2.96,1.9-6.64,2.85-11.03,2.85-3.85,0-7.1-.75-9.77-2.26ZM778.36,167.13c1.06,1.36,2.58,2.04,4.55,2.04,2.07,0,3.7-.64,4.88-1.92,1.18-1.28,1.78-2.98,1.78-5.11v-12.65s-4.59,1.48-4.59,1.48c-3.11,1.14-5.25,2.54-6.44,4.22-1.18,1.68-1.78,3.8-1.78,6.36,0,2.37.53,4.23,1.59,5.59Z"></path><path class="cls-1" d="M830.42,172.05h2.52c1.92,0,3.27-.41,4.03-1.22.76-.81,1.15-2.16,1.15-4.03v-37.89c0-1.87-.39-3.22-1.15-4.03-.77-.81-2.11-1.22-4.03-1.22h-2.52v-9.4s31.97,0,31.97,0v14.13h.59c3.16-5.23,6.28-9.19,9.36-11.88,3.08-2.69,6.65-4.03,10.69-4.03,1.78,0,3.42.44,4.92,1.33,1.5.89,2.7,2.16,3.59,3.81s1.33,3.56,1.33,5.73c0,1.88-.38,3.66-1.15,5.37-.77,1.7-1.83,3.1-3.18,4.18-1.36,1.09-2.9,1.63-4.62,1.63-1.09,0-2.12-.17-3.11-.52-.99-.34-2.05-.84-3.18-1.48-1.18-.59-2.18-1.04-3-1.33-.81-.3-1.69-.44-2.63-.44-1.48,0-2.94.48-4.37,1.44-1.43.96-2.63,2.58-3.59,4.85-.96,2.27-1.44,5.28-1.44,9.03v20.72c0,1.88.38,3.22,1.15,4.03.76.81,2.11,1.22,4.03,1.22h5.18v9.4s-42.55,0-42.55,0v-9.4Z"></path><path class="cls-1" d="M912.44,178.3c-3.87-3.28-5.81-8.32-5.81-15.13v-39.52s-10.07,0-10.07,0v-8.66s4.88-.37,4.88-.37c2.96-.25,5.25-1.33,6.88-3.26,1.63-1.92,2.71-5.03,3.26-9.32l1.11-8.66h18.43s0,20.87,0,20.87h19.46s0,9.4,0,9.4h-19.46s0,36.63,0,36.63c0,2.42.63,4.28,1.89,5.59,1.26,1.31,3,1.96,5.22,1.96,2.12,0,3.89-.62,5.29-1.85,1.41-1.23,2.55-3.21,3.44-5.92l5.48,2.44c-1.38,6.81-4.11,11.96-8.18,15.47-4.07,3.5-9.36,5.25-15.87,5.25-6.76,0-12.07-1.64-15.95-4.92Z"></path><path class="cls-1" d="M1001.5,172.04h1.48c1.68,0,2.89-.42,3.63-1.26.74-.84,1.11-2.17,1.11-4v-27.9c0-3.35-.82-5.83-2.44-7.44-1.63-1.6-3.82-2.41-6.59-2.41-2.91,0-5.18.85-6.81,2.55s-2.44,4.38-2.44,8.03v27.16c0,1.83.37,3.16,1.11,4,.74.84,1.97,1.26,3.7,1.26h1.48v9.4s-38.48,0-38.48,0v-9.4s2.52,0,2.52,0c1.92,0,3.27-.41,4.03-1.22.76-.81,1.15-2.16,1.15-4.03v-37.89c0-1.87-.39-3.22-1.15-4.03-.77-.81-2.11-1.22-4.03-1.22h-2.52v-9.4s31.89,0,31.89,0v11.91h.67c2.07-4.39,4.94-7.77,8.62-10.14s8.05-3.55,13.14-3.55,8.98,1.22,12.43,3.66c3.45,2.44,5.92,5.78,7.4,10.03h.67c1.87-4.04,4.66-7.34,8.36-9.88,3.7-2.54,8.04-3.81,13.02-3.81,6.51,0,11.7,1.96,15.58,5.88,3.87,3.92,5.81,9.66,5.81,17.21v31.23c0,1.88.38,3.22,1.15,4.03.76.81,2.11,1.22,4.03,1.22h2.52v9.4s-38.33,0-38.33,0v-9.4s1.48,0,1.48,0c1.68,0,2.89-.42,3.63-1.26.74-.84,1.11-2.17,1.11-4v-27.9c0-3.35-.82-5.83-2.44-7.44-1.63-1.6-3.82-2.4-6.59-2.4-2.91,0-5.19.85-6.84,2.55-1.65,1.7-2.48,4.38-2.48,8.03v27.16c0,1.83.37,3.16,1.11,4,.74.84,2,1.26,3.77,1.26h1.48v9.4s-36.93,0-36.93,0v-9.4Z"></path><path class="cls-1" d="M1104.14,179.25c-5.08-2.64-9.1-6.46-12.06-11.47-2.96-5.01-4.44-10.92-4.44-17.72,0-7.25,1.53-13.73,4.59-19.42,3.06-5.7,7.3-10.15,12.73-13.36s11.54-4.81,18.35-4.81c5.62,0,10.61,1.12,14.95,3.37,4.34,2.25,7.73,5.55,10.18,9.92,2.44,4.37,3.66,9.63,3.66,15.8,0,1.48-.07,3.03-.22,4.66h-41.29c.49,6.37,2.54,11.32,6.14,14.88,3.6,3.55,8.39,5.33,14.36,5.33,4.04,0,7.61-.81,10.69-2.44,3.08-1.63,5.61-3.75,7.58-6.36l3.48,1.85c-.99,4.19-2.76,8.08-5.33,11.66-2.57,3.58-6.06,6.49-10.47,8.73-4.42,2.24-9.68,3.37-15.8,3.37-6.32,0-12.01-1.32-17.09-3.96ZM1131.44,137.77c.1-5.38-.64-9.47-2.22-12.28-1.58-2.81-3.85-4.22-6.81-4.22-3.21,0-5.83,1.36-7.88,4.07-2.05,2.71-3.32,6.86-3.81,12.43h20.72Z"></path><path class="cls-1" d="M1206.18,172.03h2.07c1.82,0,3.12-.41,3.89-1.22.76-.81,1.15-2.16,1.15-4.03v-26.34c0-3.9-.88-6.77-2.63-8.62-1.75-1.85-4.21-2.77-7.36-2.77-7.1,0-10.66,3.97-10.66,11.91v25.83c0,1.88.37,3.22,1.11,4.03.74.81,2.02,1.22,3.85,1.22h2.07v9.4s-39.22,0-39.22,0v-9.4s2.52,0,2.52,0c1.92,0,3.27-.41,4.03-1.22.76-.81,1.15-2.16,1.15-4.03v-37.89c0-1.87-.39-3.22-1.15-4.03-.77-.81-2.11-1.22-4.03-1.22h-2.52v-9.4s31.89,0,31.89,0v11.91h.59c2.76-4.34,5.93-7.71,9.51-10.1,3.58-2.39,7.88-3.59,12.91-3.59,6.86,0,12.3,2,16.32,5.99,4.02,4,6.03,9.79,6.03,17.39v30.93c0,1.88.38,3.22,1.15,4.03.76.81,2.11,1.22,4.03,1.22h2.52v9.4s-39.22,0-39.22,0v-9.4Z"></path><path class="cls-1" d="M1261.35,178.28c-3.87-3.28-5.81-8.32-5.81-15.13v-39.52s-10.07,0-10.07,0v-8.66s4.88-.37,4.88-.37c2.96-.25,5.25-1.33,6.88-3.26,1.63-1.92,2.71-5.03,3.25-9.32l1.11-8.66h18.43s0,20.87,0,20.87h19.46s0,9.4,0,9.4h-19.46s0,36.63,0,36.63c0,2.42.63,4.28,1.89,5.59,1.26,1.31,3,1.96,5.22,1.96,2.12,0,3.88-.62,5.29-1.85,1.41-1.23,2.55-3.21,3.44-5.92l5.48,2.44c-1.38,6.81-4.11,11.96-8.18,15.47-4.07,3.5-9.36,5.25-15.87,5.25-6.76,0-12.07-1.64-15.95-4.92Z"></path><path class="cls-1" d="M1356.55,179.72c-4.84-2.32-8.67-5.73-11.51-10.25-2.84-4.51-4.26-9.9-4.26-16.17,0-7.1,1.89-13.79,5.66-20.05,3.77-6.26,8.85-11.29,15.24-15.06,6.39-3.77,13.33-5.66,20.83-5.66,5.72,0,10.99,1.2,15.8,3.59,4.81,2.39,8.62,5.82,11.43,10.29,2.81,4.47,4.22,9.63,4.22,15.5,0,7.3-1.85,14.12-5.55,20.46-3.7,6.34-8.71,11.4-15.02,15.17-6.32,3.77-13.2,5.66-20.65,5.66-5.97,0-11.37-1.16-16.21-3.48ZM1382.59,166.91c2.17-4.09,3.75-8.89,4.74-14.39.99-5.5,1.48-10.4,1.48-14.69,0-5.23-.78-9.07-2.33-11.51-1.55-2.44-3.54-3.66-5.96-3.66-3.45,0-6.29,2.05-8.51,6.14-2.22,4.1-3.81,8.88-4.77,14.36-.96,5.48-1.44,10.41-1.44,14.8,0,5.23.78,9.05,2.33,11.47,1.55,2.42,3.61,3.63,6.18,3.63,3.35,0,6.12-2.05,8.29-6.14ZM1401.62,209.8c-3.06-1.06-5.48-2.55-7.25-4.48s-2.66-4.12-2.66-6.59c0-2.17.7-3.91,2.11-5.22,1.41-1.31,3.19-1.96,5.36-1.96,1.92,0,3.47.52,4.63,1.55,1.16,1.04,2.38,2.54,3.66,4.51,1.13,1.68,2.15,2.93,3.03,3.77.89.84,2,1.26,3.33,1.26,1.97,0,3.49-.72,4.55-2.15,1.06-1.43,1.86-3.87,2.4-7.33l10.43-69.56h-10.14s1.7-9.4,1.7-9.4h9.84l.15-.81c.94-6.31,3.08-11.86,6.44-16.65,3.35-4.79,7.61-8.5,12.76-11.14,5.15-2.64,10.89-3.96,17.21-3.96,4,0,7.54.59,10.62,1.78,3.08,1.18,5.5,2.87,7.25,5.07,1.75,2.2,2.63,4.72,2.63,7.58,0,2.62-.85,4.85-2.55,6.7-1.7,1.85-4.03,2.78-6.99,2.78-2.37,0-4.24-.55-5.62-1.67-1.38-1.11-2.07-2.58-2.07-4.4,0-.99.25-2.17.74-3.55.44-1.09.67-2,.67-2.74s-.33-1.37-1-1.89c-.67-.52-1.52-.78-2.55-.78-2.71,0-5.11,1.25-7.18,3.74-2.07,2.49-3.55,6.18-4.44,11.06l-1.63,8.88h16.5s-1.7,9.4-1.7,9.4h-16.5s-10.06,55.5-10.06,55.5c-1.78,10.06-5.35,17.96-10.73,23.68-5.38,5.72-12.95,8.58-22.72,8.59-3.75,0-7.15-.53-10.21-1.59Z"></path><path class="cls-1" d="M506.5,345.88c-8.21-3.58-14.81-9.01-19.8-16.32-4.98-7.3-7.48-16.28-7.48-26.94,0-11.05,2.66-20.55,7.99-28.49,5.33-7.94,12.39-13.95,21.2-18.02,8.81-4.07,18.36-6.11,28.67-6.11,11.74,0,23.06,2.56,33.97,7.69l1.7,25.97h-8.51s-1.55-4.59-1.55-4.59c-2.17-6.46-5.37-11.24-9.58-14.32-4.22-3.08-9.53-4.62-15.95-4.62-5.92,0-11.25,1.52-15.98,4.55-4.74,3.03-8.46,7.54-11.17,13.51-2.71,5.97-4.07,13.25-4.07,21.83,0,8.39,1.3,15.68,3.89,21.87,2.59,6.19,6.25,10.94,10.99,14.25s10.26,4.96,16.58,4.96c10.16,0,15.24-3.92,15.24-11.77v-14.36c0-2.17-.51-3.75-1.52-4.74-1.01-.99-2.75-1.48-5.22-1.48h-9.92s0-8.81,0-8.81h48.4s0,8.8,0,8.8h-3.18c-2.47,0-4.21.49-5.22,1.48-1.01.99-1.52,2.57-1.52,4.74v26.57c-6.51,3.31-13.11,5.75-19.79,7.33-6.69,1.58-13.8,2.37-21.35,2.37-9.67,0-18.61-1.79-26.83-5.36Z"></path><path class="cls-1" d="M610.32,346.73c-5.8-3.01-10.43-7.2-13.91-12.58-3.48-5.38-5.22-11.47-5.22-18.28,0-6.81,1.74-12.89,5.22-18.24,3.48-5.35,8.13-9.53,13.95-12.54,5.82-3.01,12.11-4.51,18.87-4.52,6.81,0,13.14,1.5,18.98,4.51,5.85,3.01,10.51,7.19,13.99,12.54s5.22,11.43,5.22,18.24c0,6.81-1.74,12.9-5.22,18.28-3.48,5.38-8.14,9.57-13.99,12.58-5.85,3.01-12.17,4.51-18.98,4.51-6.81,0-13.11-1.5-18.91-4.51ZM642.03,315.87c0-16.77-4.27-25.16-12.8-25.16-8.49,0-12.73,8.39-12.73,25.16,0,9.03,1.12,15.49,3.37,19.39,2.24,3.9,5.37,5.85,9.36,5.85,8.53,0,12.8-8.41,12.8-25.23Z"></path><path class="cls-1" d="M675.95,292.89c-1.06-.81-2.58-1.22-4.55-1.22h-2v-9.4s43.29,0,43.29,0v9.4s-4.44,0-4.44,0c-2.71,0-4.07,1.01-4.07,3.03,0,.94.2,1.9.59,2.89l11.32,30.04,11.32-30.12c.44-1.13.67-2.1.67-2.89,0-1.97-1.38-2.96-4.14-2.96h-4.37v-9.4s29.45,0,29.45,0v9.4s-2,0-2,0c-1.97,0-3.49.41-4.55,1.22-1.06.81-1.96,2.13-2.7,3.96l-20.57,52.62h-20.05s-20.5-52.54-20.5-52.54c-.74-1.87-1.64-3.22-2.7-4.03Z"></path><path class="cls-1" d="M765.68,347.27c-5.08-2.64-9.1-6.46-12.06-11.47-2.96-5.01-4.44-10.92-4.44-17.72,0-7.25,1.53-13.73,4.59-19.43,3.06-5.7,7.3-10.15,12.73-13.36,5.43-3.21,11.54-4.81,18.35-4.81,5.62,0,10.61,1.12,14.95,3.37,4.34,2.25,7.73,5.55,10.18,9.92,2.44,4.37,3.66,9.63,3.66,15.8,0,1.48-.07,3.03-.22,4.66h-41.29c.49,6.37,2.54,11.32,6.14,14.88,3.6,3.55,8.39,5.33,14.36,5.33,4.04,0,7.61-.81,10.69-2.44,3.08-1.63,5.61-3.75,7.58-6.36l3.48,1.85c-.99,4.19-2.76,8.08-5.33,11.66-2.57,3.58-6.06,6.49-10.47,8.73-4.42,2.24-9.68,3.37-15.8,3.37-6.32,0-12.01-1.32-17.09-3.96ZM792.99,305.79c.1-5.38-.64-9.47-2.22-12.28-1.58-2.81-3.85-4.22-6.81-4.22-3.21,0-5.83,1.36-7.88,4.07-2.05,2.71-3.32,6.86-3.81,12.43h20.72Z"></path><path class="cls-1" d="M821.99,340.05h2.52c1.92,0,3.27-.41,4.03-1.22.76-.81,1.15-2.16,1.15-4.03v-37.89c0-1.87-.39-3.22-1.15-4.03-.77-.81-2.11-1.22-4.03-1.22h-2.52v-9.4s31.97,0,31.97,0v14.13h.59c3.16-5.23,6.28-9.19,9.36-11.88,3.08-2.69,6.65-4.03,10.69-4.03,1.78,0,3.42.44,4.92,1.33,1.5.89,2.7,2.16,3.59,3.81.89,1.65,1.33,3.56,1.33,5.73,0,1.88-.38,3.66-1.15,5.37-.77,1.7-1.83,3.1-3.18,4.18s-2.9,1.63-4.62,1.63c-1.09,0-2.12-.17-3.11-.52-.99-.34-2.05-.84-3.18-1.48-1.18-.59-2.18-1.04-3-1.33s-1.69-.44-2.63-.44c-1.48,0-2.94.48-4.37,1.44-1.43.96-2.63,2.58-3.59,4.85-.96,2.27-1.44,5.28-1.44,9.03v20.72c0,1.88.38,3.22,1.15,4.03.76.81,2.11,1.22,4.03,1.22h5.18s0,9.4,0,9.4h-42.55s0-9.4,0-9.4Z"></path><path class="cls-1" d="M934.55,340.05h2.07c1.82,0,3.12-.41,3.89-1.22.76-.81,1.15-2.16,1.15-4.03v-26.34c0-3.9-.88-6.77-2.63-8.62-1.75-1.85-4.21-2.78-7.36-2.78-7.1,0-10.66,3.97-10.66,11.92v25.83c0,1.88.37,3.22,1.11,4.03.74.81,2.02,1.22,3.85,1.22h2.07v9.4s-39.22,0-39.22,0v-9.4s2.52,0,2.52,0c1.92,0,3.27-.41,4.03-1.22.76-.81,1.15-2.16,1.15-4.03v-37.89c0-1.87-.39-3.22-1.15-4.03-.77-.81-2.11-1.22-4.03-1.22h-2.52v-9.4s31.89,0,31.89,0v11.91h.59c2.76-4.34,5.93-7.71,9.51-10.1,3.58-2.39,7.88-3.59,12.91-3.59,6.86,0,12.3,2,16.32,5.99,4.02,4,6.03,9.79,6.03,17.39v30.93c0,1.88.38,3.22,1.15,4.03.76.81,2.11,1.22,4.03,1.22h2.52v9.4s-39.22,0-39.22,0v-9.4Z"></path><path class="cls-1" d="M1022.75,340.04h1.48c1.68,0,2.89-.42,3.63-1.26.74-.84,1.11-2.17,1.11-4v-27.9c0-3.35-.82-5.83-2.44-7.44-1.63-1.6-3.82-2.4-6.59-2.4-2.91,0-5.18.85-6.81,2.55s-2.44,4.38-2.44,8.03v27.16c0,1.83.37,3.16,1.11,4,.74.84,1.97,1.26,3.7,1.26h1.48v9.4s-38.48,0-38.48,0v-9.4s2.52,0,2.52,0c1.92,0,3.27-.41,4.03-1.22.76-.81,1.15-2.16,1.15-4.03v-37.89c0-1.88-.39-3.22-1.15-4.03-.77-.81-2.11-1.22-4.03-1.22h-2.52v-9.4s31.89,0,31.89,0v11.91h.67c2.07-4.39,4.94-7.77,8.62-10.14,3.67-2.37,8.05-3.55,13.13-3.55,4.83,0,8.98,1.22,12.43,3.66,3.45,2.44,5.92,5.78,7.4,10.03h.67c1.87-4.04,4.66-7.34,8.36-9.88,3.7-2.54,8.04-3.81,13.02-3.81,6.51,0,11.7,1.96,15.58,5.88,3.87,3.92,5.81,9.66,5.81,17.21v31.23c0,1.88.38,3.22,1.15,4.03.76.81,2.11,1.22,4.03,1.22h2.52v9.4s-38.33,0-38.33,0v-9.4s1.48,0,1.48,0c1.68,0,2.89-.42,3.63-1.26s1.11-2.17,1.11-4v-27.9c0-3.35-.82-5.83-2.44-7.44-1.63-1.6-3.82-2.41-6.59-2.41-2.91,0-5.19.85-6.84,2.55-1.65,1.7-2.48,4.38-2.48,8.03v27.16c0,1.83.37,3.16,1.11,4,.74.84,2,1.26,3.77,1.26h1.48s0,9.4,0,9.4h-36.93s0-9.4,0-9.4Z"></path><path class="cls-1" d="M1125.39,347.25c-5.08-2.64-9.1-6.46-12.06-11.47-2.96-5.01-4.44-10.92-4.44-17.72,0-7.25,1.53-13.73,4.59-19.43,3.06-5.7,7.3-10.15,12.73-13.36,5.43-3.21,11.54-4.81,18.35-4.81,5.62,0,10.61,1.12,14.95,3.37,4.34,2.25,7.73,5.55,10.18,9.92,2.44,4.37,3.66,9.63,3.66,15.8,0,1.48-.07,3.03-.22,4.66h-41.29c.49,6.37,2.54,11.32,6.14,14.88,3.6,3.55,8.39,5.33,14.36,5.33,4.04,0,7.61-.81,10.69-2.44,3.08-1.63,5.61-3.75,7.58-6.36l3.48,1.85c-.99,4.19-2.76,8.08-5.33,11.65-2.57,3.58-6.06,6.49-10.47,8.73-4.42,2.24-9.68,3.37-15.8,3.37-6.32,0-12.01-1.32-17.09-3.96ZM1152.69,305.77c.1-5.38-.64-9.47-2.22-12.28-1.58-2.81-3.85-4.22-6.81-4.22-3.21,0-5.83,1.36-7.88,4.07-2.05,2.71-3.32,6.86-3.81,12.43h20.72Z"></path><path class="cls-1" d="M1227.43,340.03h2.07c1.82,0,3.12-.41,3.89-1.22.76-.81,1.15-2.16,1.15-4.03v-26.34c0-3.9-.88-6.77-2.63-8.62-1.75-1.85-4.21-2.78-7.36-2.78-7.1,0-10.66,3.97-10.65,11.92v25.83c0,1.88.37,3.22,1.11,4.03.74.81,2.02,1.22,3.85,1.22h2.07v9.4s-39.22,0-39.22,0v-9.4s2.52,0,2.52,0c1.92,0,3.27-.41,4.03-1.22.76-.81,1.15-2.16,1.15-4.03v-37.89c0-1.87-.39-3.22-1.15-4.03-.77-.81-2.11-1.22-4.03-1.22h-2.52v-9.4s31.89,0,31.89,0v11.91h.59c2.76-4.34,5.93-7.71,9.51-10.1,3.58-2.39,7.88-3.59,12.91-3.59,6.86,0,12.3,2,16.32,5.99,4.02,4,6.03,9.79,6.03,17.39v30.93c0,1.88.38,3.22,1.15,4.03.76.81,2.11,1.22,4.03,1.22h2.52v9.4s-39.22,0-39.22,0v-9.4Z"></path><path class="cls-1" d="M1282.6,346.28c-3.87-3.28-5.81-8.32-5.81-15.13v-39.52h-10.07v-8.66s4.88-.37,4.88-.37c2.96-.25,5.25-1.33,6.88-3.26,1.63-1.92,2.71-5.03,3.26-9.32l1.11-8.66h18.43s0,20.87,0,20.87h19.46s0,9.4,0,9.4h-19.46s0,36.63,0,36.63c0,2.42.63,4.28,1.89,5.59,1.26,1.31,3,1.96,5.22,1.96s3.88-.62,5.29-1.85c1.41-1.23,2.55-3.21,3.44-5.92l5.48,2.44c-1.38,6.81-4.11,11.96-8.18,15.47-4.07,3.5-9.36,5.25-15.87,5.25s-12.07-1.64-15.95-4.92Z"></path><path class="cls-1" d="M1387.83,344.79c-7.97-4.22-14.27-10.16-18.91-17.83-4.64-7.67-6.96-16.46-6.96-26.38s2.32-18.71,6.95-26.38c4.64-7.67,10.94-13.62,18.91-17.83,7.97-4.22,16.74-6.33,26.31-6.33,9.57,0,18.31,2.11,26.23,6.33,7.92,4.22,14.2,10.16,18.83,17.83,4.64,7.67,6.96,16.46,6.96,26.38s-2.32,18.71-6.95,26.38c-4.64,7.67-10.91,13.62-18.83,17.83-7.92,4.22-16.66,6.33-26.23,6.33-9.57,0-18.34-2.11-26.31-6.33ZM1432.97,330.47c4.37-6.96,6.55-16.92,6.55-29.9,0-12.97-2.18-22.94-6.55-29.9-4.37-6.96-10.65-10.43-18.83-10.43-8.24,0-14.54,3.47-18.91,10.4-4.37,6.93-6.55,16.91-6.55,29.93,0,13.02,2.18,23,6.55,29.93s10.67,10.4,18.91,10.4,14.47-3.48,18.83-10.44Z"></path><path class="cls-1" d="M1473.11,369.61h2.52c1.92,0,3.27-.41,4.03-1.22.76-.81,1.15-2.16,1.15-4.03v-67.49c0-1.87-.39-3.22-1.15-4.03-.77-.81-2.11-1.22-4.03-1.22h-2.52v-9.4s31.89,0,31.89,0v9.25h.59c5.28-7.3,12.01-10.95,20.2-10.95,4.78,0,9.19,1.28,13.21,3.85,4.02,2.56,7.23,6.33,9.62,11.28,2.39,4.96,3.59,10.89,3.59,17.8,0,7.25-1.53,13.74-4.59,19.46-3.06,5.72-7.28,10.2-12.65,13.43-5.38,3.23-11.45,4.85-18.2,4.85-3.95,0-7.77-.59-11.47-1.77v14.95c0,1.87.38,3.22,1.15,4.03.76.81,2.11,1.22,4.03,1.22h5.18v9.4s-42.55,0-42.55,0v-9.4ZM1508.04,338.64c1.82,2.39,4.24,3.59,7.25,3.59,2.37,0,4.46-.84,6.29-2.52,1.82-1.68,3.28-4.27,4.37-7.77,1.08-3.5,1.63-7.84,1.63-13.02,0-5.13-.59-9.52-1.78-13.17-1.18-3.65-2.81-6.4-4.88-8.25-2.07-1.85-4.44-2.77-7.1-2.77-1.68,0-3.21.31-4.59.92-1.38.62-2.69,1.62-3.92,3v29.23c0,4.79.91,8.38,2.74,10.77Z"></path><path class="cls-1" d="M1576.86,347.22c-5.08-2.64-9.1-6.46-12.06-11.47-2.96-5.01-4.44-10.91-4.44-17.72,0-7.25,1.53-13.73,4.59-19.42,3.06-5.7,7.3-10.15,12.73-13.36,5.43-3.21,11.54-4.81,18.35-4.81,5.62,0,10.61,1.12,14.95,3.37,4.34,2.25,7.73,5.55,10.18,9.92,2.44,4.37,3.66,9.63,3.66,15.8,0,1.48-.07,3.03-.22,4.66h-41.29c.49,6.37,2.54,11.32,6.14,14.88,3.6,3.55,8.39,5.33,14.36,5.33,4.04,0,7.61-.81,10.69-2.44,3.08-1.63,5.61-3.75,7.58-6.36l3.48,1.85c-.99,4.19-2.76,8.08-5.33,11.66-2.57,3.58-6.06,6.49-10.47,8.73-4.42,2.25-9.68,3.37-15.8,3.37-6.32,0-12.01-1.32-17.09-3.96ZM1604.16,305.74c.1-5.38-.64-9.47-2.22-12.28-1.58-2.81-3.85-4.22-6.81-4.22-3.21,0-5.83,1.36-7.88,4.07-2.05,2.71-3.32,6.86-3.81,12.43h20.72Z"></path><path class="cls-1" d="M1633.17,340h2.52c1.92,0,3.27-.41,4.03-1.22.76-.81,1.15-2.16,1.15-4.03v-37.89c0-1.87-.39-3.22-1.15-4.03-.77-.81-2.11-1.22-4.03-1.22h-2.52v-9.4s31.97,0,31.97,0v14.13h.59c3.16-5.23,6.28-9.19,9.36-11.88,3.08-2.69,6.65-4.03,10.69-4.03,1.78,0,3.42.44,4.92,1.33,1.5.89,2.7,2.16,3.59,3.81.89,1.65,1.33,3.56,1.33,5.74,0,1.88-.38,3.66-1.15,5.36-.77,1.7-1.83,3.1-3.18,4.18-1.36,1.09-2.9,1.63-4.62,1.63-1.09,0-2.12-.17-3.11-.52-.99-.34-2.05-.84-3.18-1.48-1.18-.59-2.18-1.04-3-1.33s-1.69-.44-2.63-.44c-1.48,0-2.94.48-4.37,1.44-1.43.96-2.63,2.58-3.59,4.85-.96,2.27-1.44,5.28-1.44,9.03v20.72c0,1.88.38,3.22,1.15,4.03.76.81,2.11,1.22,4.03,1.22h5.18v9.4s-42.55,0-42.55,0v-9.4Z"></path><path class="cls-1" d="M1707.25,348.92c-2.66-1.5-4.66-3.5-5.99-5.99-1.33-2.49-2-5.24-2-8.25,0-4.78,1.43-8.69,4.29-11.73,2.86-3.03,7.55-5.39,14.06-7.07l18.35-4.66v-7.18c0-4.69-.9-8.31-2.7-10.88-1.8-2.56-4.4-3.85-7.81-3.85-2.17,0-3.87.51-5.11,1.52-1.23,1.01-1.85,2.41-1.85,4.18,0,.64.2,1.65.59,3.03.15.59.3,1.23.44,1.92.15.69.22,1.36.22,2,0,2.22-.92,4.07-2.77,5.55-1.85,1.48-4.06,2.22-6.62,2.22-2.91,0-5.34-.8-7.29-2.4-1.95-1.6-2.92-4.01-2.92-7.21,0-3.8,1.49-7.19,4.48-10.18,2.98-2.98,6.99-5.32,12.02-6.99,5.03-1.68,10.53-2.52,16.5-2.52,8.98,0,15.77,1.84,20.39,5.51,4.61,3.67,6.92,9.19,6.92,16.54v29.82c0,1.83.29,3.16.85,4,.57.84,1.44,1.26,2.63,1.26,2.12,0,3.8-1.7,5.03-5.11l4.74,2c-.74,4-2.16,7.23-4.25,9.69-2.1,2.47-4.53,4.23-7.29,5.29-2.76,1.06-5.58,1.59-8.44,1.59-4.39,0-7.92-.88-10.58-2.63-2.66-1.75-4.84-4.6-6.51-8.55h-.67c-2.32,3.75-4.96,6.57-7.92,8.47-2.96,1.9-6.64,2.85-11.03,2.85-3.85,0-7.1-.75-9.77-2.26ZM1724.75,335.08c1.06,1.36,2.58,2.04,4.55,2.04,2.07,0,3.7-.64,4.88-1.92,1.18-1.28,1.78-2.98,1.78-5.11v-12.65s-4.59,1.48-4.59,1.48c-3.11,1.14-5.25,2.54-6.44,4.22-1.18,1.68-1.78,3.8-1.78,6.36,0,2.37.53,4.23,1.59,5.59Z"></path><path class="cls-1" d="M1787.64,346.25c-3.87-3.28-5.81-8.33-5.81-15.13v-39.52h-10.07v-8.66s4.88-.37,4.88-.37c2.96-.25,5.25-1.33,6.88-3.26s2.71-5.03,3.26-9.32l1.11-8.66h18.43s0,20.87,0,20.87h19.46s0,9.4,0,9.4h-19.46s0,36.63,0,36.63c0,2.42.63,4.28,1.89,5.59,1.26,1.31,3,1.96,5.22,1.96s3.88-.62,5.29-1.85c1.41-1.23,2.55-3.21,3.44-5.92l5.48,2.44c-1.38,6.81-4.11,11.96-8.18,15.47-4.07,3.5-9.36,5.25-15.87,5.25-6.76,0-12.07-1.64-15.95-4.92Z"></path><path class="cls-1" d="M1832.45,339.99h2.52c1.92,0,3.27-.41,4.03-1.22.76-.81,1.15-2.16,1.15-4.03v-37.89c0-1.87-.39-3.22-1.15-4.03-.77-.81-2.11-1.22-4.03-1.22h-2.52v-9.4s32.19,0,32.19,0v52.54c0,1.88.38,3.22,1.15,4.03.76.81,2.11,1.22,4.03,1.22h2.52s0,9.4,0,9.4h-39.89s0-9.4,0-9.4ZM1843.47,273.17c-2.12-1.13-3.74-2.68-4.85-4.62-1.11-1.95-1.67-4.13-1.67-6.55s.56-4.53,1.66-6.48c1.11-1.95,2.73-3.49,4.85-4.62,2.12-1.13,4.61-1.7,7.47-1.7,2.91,0,5.43.57,7.55,1.7,2.12,1.14,3.74,2.66,4.85,4.59s1.67,4.09,1.67,6.51-.55,4.6-1.66,6.55c-1.11,1.95-2.73,3.49-4.85,4.62-2.12,1.13-4.64,1.7-7.55,1.7s-5.35-.57-7.47-1.7Z"></path><path class="cls-1" d="M1898.79,346.65c-5.8-3.01-10.43-7.2-13.91-12.58s-5.22-11.47-5.22-18.28c0-6.81,1.74-12.89,5.22-18.24,3.48-5.35,8.13-9.53,13.95-12.54,5.82-3.01,12.11-4.52,18.87-4.52s13.14,1.5,18.98,4.51c5.85,3.01,10.51,7.19,13.99,12.54,3.48,5.35,5.22,11.43,5.22,18.24,0,6.81-1.74,12.9-5.22,18.28-3.48,5.38-8.14,9.57-13.98,12.58-5.85,3.01-12.17,4.52-18.98,4.52s-13.11-1.5-18.91-4.51ZM1930.5,315.79c0-16.77-4.27-25.16-12.8-25.16-8.49,0-12.73,8.39-12.73,25.16,0,9.03,1.12,15.49,3.37,19.39,2.24,3.9,5.37,5.85,9.36,5.84,8.53,0,12.8-8.41,12.8-25.23Z"></path><path class="cls-1" d="M2008.86,339.98h2.07c1.82,0,3.12-.41,3.89-1.22.76-.81,1.15-2.16,1.15-4.03v-26.34c0-3.9-.88-6.77-2.63-8.62-1.75-1.85-4.21-2.78-7.36-2.78-7.1,0-10.66,3.97-10.65,11.92v25.83c0,1.88.37,3.22,1.11,4.03.74.81,2.02,1.22,3.85,1.22h2.07s0,9.4,0,9.4h-39.22s0-9.4,0-9.4h2.52c1.92,0,3.27-.41,4.03-1.22.76-.81,1.15-2.16,1.15-4.03v-37.89c0-1.87-.39-3.22-1.15-4.03-.77-.81-2.11-1.22-4.03-1.22h-2.52v-9.4s31.89,0,31.89,0v11.91h.59c2.76-4.34,5.93-7.71,9.51-10.1,3.58-2.39,7.88-3.59,12.91-3.59,6.86,0,12.3,2,16.32,5.99,4.02,4,6.03,9.79,6.03,17.39v30.93c0,1.88.38,3.22,1.15,4.03.76.81,2.11,1.22,4.03,1.22h2.52v9.4s-39.22,0-39.22,0v-9.4Z"></path><path class="cls-1" d="M2056.59,346.49l-3.55-18.8h5.03s2.96,4.07,2.96,4.07c2.91,3.8,6.02,6.62,9.32,8.47,3.3,1.85,6.68,2.77,10.14,2.77,2.81,0,5.23-.64,7.25-1.92,2.02-1.28,3.03-3.26,3.03-5.92,0-1.88-.59-3.38-1.78-4.51-1.18-1.13-3.21-2.15-6.07-3.03l-9.84-2.96c-6.17-1.87-10.84-4.44-14.02-7.69-3.18-3.26-4.77-7.6-4.77-13.02,0-4.69,1.29-8.81,3.88-12.36,2.59-3.55,6.15-6.29,10.69-8.21,4.54-1.92,9.62-2.89,15.24-2.89,7.25,0,15.22,1.82,23.9,5.47v17.46s-4.88,0-4.88,0l-1.48-3.33c-3.55-7.3-9.18-10.95-16.87-10.95-3.06,0-5.45.66-7.18,1.96-1.73,1.31-2.59,2.92-2.59,4.85,0,1.92.65,3.44,1.96,4.55,1.31,1.11,3.69,2.18,7.14,3.22l8.73,2.74c6.12,1.88,10.74,4.37,13.88,7.47,3.13,3.11,4.7,7.47,4.7,13.1,0,5.18-1.31,9.57-3.92,13.17-2.62,3.6-6.22,6.3-10.8,8.1-4.59,1.8-9.79,2.7-15.61,2.7-7.99,0-16.16-1.5-24.49-4.51Z"></path></g><g><path class="cls-1" d="M511.1,563.11c-5.82-2.64-10.24-6.5-13.25-11.58-3.01-5.08-4.51-11.25-4.51-18.5v-52.84c0-2.22-.55-3.85-1.63-4.88-1.09-1.04-2.81-1.55-5.18-1.55h-7.4v-6.07s42.11,0,42.11,0v6.07s-7.4,0-7.4,0c-2.37,0-4.1.52-5.18,1.55-1.09,1.04-1.63,2.66-1.63,4.88v53.28c0,8.09,2.31,14.24,6.92,18.46,4.61,4.22,11.21,6.33,19.8,6.33,8.88,0,15.84-2.12,20.87-6.37s7.55-10.38,7.55-18.43v-53.28c0-2.27-.57-3.91-1.71-4.92-1.14-1.01-3.06-1.52-5.77-1.52h-10.14s0-6.07,0-6.07h39.52s0,6.07,0,6.07h-7.7c-2.37,0-4.1.52-5.18,1.55-1.09,1.04-1.63,2.66-1.63,4.88v52.84c0,7.25-1.45,13.42-4.36,18.5-2.91,5.08-7.15,8.94-12.73,11.58-5.58,2.64-12.31,3.96-20.2,3.96-8.29,0-15.34-1.32-21.16-3.96Z"></path><path class="cls-1" d="M605.82,562.99c-3.26-2.76-4.88-7.03-4.88-12.8v-44.47h-12.58v-5.33s4.22-.37,4.22-.37c3.6-.25,6.15-1.34,7.66-3.29,1.5-1.95,2.43-5.04,2.77-9.29l.67-9.03h9.99v21.24s22.42,0,22.42,0v6.07s-22.42,0-22.42,0v42.7c0,3.31.79,5.72,2.37,7.25,1.58,1.53,3.67,2.29,6.29,2.29s4.86-.78,6.59-2.33c1.73-1.55,3.01-4.18,3.85-7.88l4.66,1.85c-.79,5.53-2.79,9.83-5.99,12.91-3.21,3.08-7.47,4.62-12.8,4.63-5.28,0-9.55-1.38-12.8-4.14Z"></path><path class="cls-1" d="M655.14,564.95c-2.89-1.45-5.07-3.44-6.55-5.96s-2.22-5.35-2.22-8.51c0-9.52,6.46-15.66,19.39-18.43l19.39-4.15v-7.77c0-5.67-1.28-9.8-3.85-12.39-2.57-2.59-6.41-3.88-11.54-3.88-2.86,0-5.28.64-7.25,1.92-1.97,1.28-2.96,2.89-2.96,4.81,0,.89.27,1.97.81,3.26.25.59.46,1.2.63,1.81.17.62.26,1.25.26,1.89,0,1.73-.67,3.2-2,4.4-1.33,1.21-3.01,1.81-5.03,1.81-2.12,0-3.87-.64-5.25-1.92-1.38-1.28-2.07-3.23-2.07-5.85,0-3.16,1.2-6.12,3.59-8.88,2.39-2.76,5.65-4.98,9.77-6.66,4.12-1.68,8.6-2.52,13.43-2.52,7.7,0,13.65,1.71,17.87,5.14,4.22,3.43,6.33,8.6,6.33,15.5v33.08c0,2.47.46,4.33,1.37,5.59.91,1.26,2.13,1.89,3.66,1.89,1.33,0,2.49-.47,3.48-1.41.99-.94,1.85-2.52,2.59-4.74l3.7,1.63c-.69,3.65-2.31,6.61-4.85,8.88-2.54,2.27-5.64,3.4-9.29,3.4-3.85,0-6.77-.96-8.77-2.88s-3.47-4.71-4.4-8.36h-.44c-1.97,3.45-4.6,6.23-7.88,8.33-3.28,2.1-7.14,3.15-11.58,3.15-4,0-7.44-.73-10.32-2.18ZM661.73,556.18c1.85,2.02,4.6,3.03,8.25,3.03,2.81,0,5.38-.63,7.7-1.89,2.32-1.26,4.14-3.07,5.48-5.44,1.33-2.37,2-5.13,2-8.29v-10.8s-14.8,3.48-14.8,3.48c-7.6,1.88-11.4,5.92-11.4,12.14,0,3.16.93,5.75,2.78,7.77Z"></path><path class="cls-1" d="M715.49,559.28h4c2.17,0,3.69-.42,4.55-1.26.86-.84,1.29-2.29,1.29-4.37v-74.3c0-2.07-.44-3.53-1.3-4.37-.86-.84-2.38-1.26-4.55-1.26h-4s0-6.07,0-6.07h22.5s0,43.51,0,43.51h.44c2.07-4,4.86-7.22,8.36-9.66,3.5-2.44,7.87-3.66,13.1-3.66,6.86,0,12.36,1.99,16.5,5.96,4.14,3.97,6.22,9.88,6.22,17.72v32.12c0,2.07.45,3.53,1.33,4.37.89.84,2.42,1.26,4.59,1.26h4v6.07s-32.26,0-32.26,0v-6.07s3.92,0,3.92,0c2.12,0,3.61-.42,4.48-1.26.86-.84,1.29-2.29,1.29-4.37v-30.34c0-5.48-1.35-9.57-4.04-12.28-2.69-2.71-6.38-4.07-11.06-4.07-4.79,0-8.79,1.48-12.02,4.44-3.23,2.96-4.85,7.79-4.85,14.5v27.75c0,2.07.45,3.53,1.33,4.37.89.84,2.39,1.26,4.51,1.26h3.92s0,6.07,0,6.07h-32.26s0-6.07,0-6.07Z"></path><path class="cls-1" d="M858.6,560.46c-7.65-4.39-13.68-10.43-18.09-18.13-4.42-7.7-6.62-16.3-6.62-25.83,0-9.52,2.21-18.13,6.62-25.83,4.41-7.7,10.44-13.74,18.09-18.13,7.65-4.39,16.08-6.59,25.31-6.59,9.22,0,17.65,2.2,25.27,6.58,7.62,4.39,13.64,10.43,18.06,18.13,4.42,7.7,6.62,16.31,6.62,25.83,0,9.52-2.21,18.13-6.62,25.83-4.42,7.7-10.43,13.74-18.05,18.13-7.62,4.39-16.05,6.59-25.27,6.59-9.23,0-17.66-2.19-25.31-6.58ZM902.33,555.09c5.43-3.53,9.68-8.6,12.76-15.21,3.08-6.61,4.62-14.41,4.62-23.38,0-8.98-1.54-16.77-4.63-23.38-3.08-6.61-7.34-11.68-12.77-15.21-5.43-3.53-11.57-5.29-18.43-5.29-6.91,0-13.07,1.77-18.5,5.29-5.43,3.53-9.68,8.6-12.76,15.21-3.08,6.61-4.62,14.41-4.62,23.38,0,8.98,1.54,16.77,4.63,23.38,3.08,6.61,7.34,11.68,12.77,15.21,5.43,3.53,11.59,5.29,18.5,5.29,6.86,0,13-1.76,18.43-5.29Z"></path><path class="cls-1" d="M945.03,559.27h4c2.17,0,3.69-.42,4.55-1.26.86-.84,1.29-2.29,1.29-4.37v-47.95s-12.58,0-12.58,0v-6.07s12.58,0,12.58,0v-1.63c0-5.48,1.26-10.37,3.77-14.69,2.52-4.32,5.97-7.7,10.36-10.14,4.39-2.44,9.3-3.66,14.73-3.66,4.29,0,8.04.71,11.25,2.14,3.21,1.43,5.62,3.33,7.25,5.7,2.81-3.7,6.41-6.59,10.8-8.66s9.27-3.11,14.65-3.11c4.64,0,8.63.68,11.99,2.03,3.35,1.36,5.91,3.18,7.66,5.48,1.75,2.29,2.63,4.82,2.63,7.58,0,2.12-.63,3.87-1.89,5.25-1.26,1.38-3.05,2.07-5.36,2.07s-4.12-.58-5.25-1.74c-1.14-1.16-1.7-2.53-1.7-4.11,0-.84.25-1.9.74-3.18.39-1.18.59-2.02.59-2.52,0-1.48-.68-2.66-2.04-3.55-1.36-.89-3.32-1.33-5.88-1.33-4,0-7.52.88-10.58,2.63-3.06,1.75-5.45,4.38-7.18,7.88-1.73,3.5-2.59,7.82-2.59,12.95v4.59h41.74s.15,54.02.15,54.02c0,2.07.43,3.53,1.3,4.37.86.84,2.38,1.26,4.55,1.26h4s0,6.07,0,6.07h-32.41s0-6.07,0-6.07h4c2.17,0,3.7-.42,4.59-1.26s1.33-2.29,1.33-4.37v-42.33c0-2.07-.45-3.53-1.33-4.37-.89-.84-2.42-1.26-4.59-1.26h-23.31s0,47.95,0,47.95c0,2.07.44,3.53,1.33,4.37.89.84,2.39,1.26,4.51,1.26h5.55v6.07s-33.97,0-33.97,0v-6.07s4.07,0,4.07,0c2.12,0,3.63-.42,4.51-1.26.89-.84,1.33-2.29,1.33-4.37v-47.95s-28.57,0-28.57,0v47.95c0,2.07.43,3.53,1.3,4.37.86.84,2.38,1.26,4.55,1.26h5.33v6.07s-33.74,0-33.74,0v-6.07ZM996.16,499.62v-3.4c0-2.02.15-3.92.44-5.7-1.83-.15-3.19-.73-4.11-1.74-.91-1.01-1.37-2.21-1.37-3.59,0-.74.25-1.75.74-3.03.39-1.08.59-1.87.59-2.37,0-1.33-.65-2.38-1.96-3.14-1.31-.76-3.17-1.15-5.59-1.15-3.16,0-6.06.79-8.7,2.37-2.64,1.58-4.74,4-6.29,7.25-1.55,3.26-2.33,7.28-2.33,12.06v2.44h28.56Z"></path><path class="cls-1" d="M1084.22,563.15c-4.49-2.64-8.1-6.46-10.84-11.47-2.74-5.01-4.11-10.89-4.11-17.65,0-7,1.43-13.26,4.29-18.76,2.86-5.5,6.73-9.78,11.62-12.84,4.88-3.06,10.26-4.59,16.13-4.59,4.19,0,8.05.83,11.58,2.48,3.53,1.65,6.33,3.86,8.4,6.62,2.07,2.76,3.11,5.75,3.11,8.95,0,2.62-.73,4.61-2.18,5.99-1.46,1.38-3.24,2.07-5.37,2.07s-3.75-.6-5.03-1.81c-1.28-1.21-1.92-2.7-1.92-4.48,0-.74.09-1.38.26-1.92.17-.54.41-1.18.7-1.92.54-1.08.81-2.05.81-2.89,0-2.22-.93-3.96-2.78-5.22-1.85-1.26-4.38-1.89-7.58-1.89-3.45,0-6.64,1.06-9.55,3.18-2.91,2.12-5.23,5.13-6.96,9.03s-2.59,8.39-2.59,13.47c0,5.53.89,10.34,2.67,14.43,1.78,4.1,4.29,7.24,7.55,9.43,3.26,2.2,7.08,3.29,11.47,3.29,7.65,0,13.96-3.63,18.94-10.88l2.66,1.7c-1.18,3.45-2.96,6.66-5.33,9.62-2.37,2.96-5.36,5.37-8.99,7.22s-7.81,2.78-12.54,2.78c-5.13,0-9.94-1.32-14.43-3.96Z"></path><path class="cls-1" d="M1148.86,563.14c-4.66-2.64-8.3-6.41-10.92-11.32-2.62-4.91-3.92-10.62-3.92-17.13,0-6.96,1.36-13.23,4.07-18.83,2.71-5.6,6.46-10,11.25-13.21,4.78-3.21,10.14-4.81,16.06-4.81,5.23,0,9.82,1.15,13.76,3.44,3.95,2.29,6.98,5.49,9.1,9.58,2.12,4.1,3.18,8.73,3.18,13.91,0,1.73-.1,3.31-.3,4.74h-44.62v1.19c.05,8.73,2.16,15.28,6.33,19.65,4.17,4.37,9.71,6.55,16.61,6.55,8.19,0,14.85-3.7,19.98-11.1l2.66,1.7c-1.14,3.36-2.86,6.5-5.18,9.44-2.32,2.94-5.35,5.37-9.1,7.29-3.75,1.92-8.14,2.89-13.17,2.89-5.87,0-11.14-1.32-15.8-3.96ZM1179.9,523.59c.05-3.95-.51-7.41-1.67-10.4-1.16-2.98-2.86-5.3-5.11-6.96-2.25-1.65-4.9-2.48-7.96-2.48-4.69,0-8.66,1.75-11.91,5.25-3.26,3.5-5.35,8.36-6.29,14.58h32.93Z"></path><path class="cls-1" d="M1248.57,563.69c-3.95-2.27-7.06-5.55-9.32-9.84-2.27-4.29-3.4-9.37-3.4-15.24,0-7.05,1.56-13.71,4.7-19.98,3.13-6.26,7.35-11.29,12.65-15.06,5.3-3.77,11.01-5.66,17.13-5.66,4.83,0,9.16,1.13,12.99,3.4,3.82,2.27,6.83,5.55,9.03,9.84,2.19,4.29,3.29,9.32,3.29,15.1,0,7.15-1.52,13.86-4.55,20.13-3.03,6.27-7.14,11.29-12.32,15.06-5.18,3.77-10.83,5.66-16.95,5.66-4.88,0-9.3-1.13-13.25-3.4ZM1273.77,554.96c2.89-3.9,5.03-8.57,6.44-14.02,1.41-5.45,2.11-10.5,2.11-15.13,0-4.49-.54-8.36-1.63-11.62-1.09-3.26-2.64-5.75-4.66-7.47-2.02-1.73-4.37-2.59-7.03-2.59-4.29,0-7.93,1.95-10.92,5.85-2.98,3.9-5.22,8.6-6.7,14.1-1.48,5.5-2.22,10.54-2.22,15.13,0,4.44.58,8.29,1.74,11.54,1.16,3.26,2.79,5.75,4.88,7.47,2.1,1.73,4.53,2.59,7.29,2.59,4.24,0,7.81-1.95,10.69-5.85ZM1283.91,594.03c-2.59-.89-4.7-2.1-6.33-3.62-1.63-1.53-2.44-3.23-2.44-5.11,0-1.68.53-3.03,1.59-4.07,1.06-1.04,2.38-1.55,3.96-1.55,1.33,0,2.41.38,3.22,1.15.81.76,1.71,1.91,2.7,3.44,1.13,1.73,2.18,3.02,3.15,3.88.96.86,2.31,1.29,4.03,1.29,1.97,0,3.66-.53,5.07-1.59,1.41-1.06,2.63-2.86,3.66-5.4,1.04-2.54,1.95-6.08,2.74-10.62l10.87-66.16h-12.36l1.04-6.07h12.36s.59-3.63.59-3.63c1.04-6.41,3-11.9,5.88-16.47,2.89-4.56,6.42-8.03,10.62-10.4,4.19-2.37,8.81-3.55,13.84-3.55,3.16,0,5.98.58,8.47,1.74,2.49,1.16,4.43,2.74,5.81,4.74,1.38,2,2.07,4.18,2.07,6.55,0,2.37-.7,4.37-2.11,5.99s-3.22,2.44-5.44,2.44c-1.97,0-3.45-.48-4.44-1.44-.99-.96-1.48-2.16-1.48-3.59,0-.94.34-2.15,1.04-3.63.64-1.28.96-2.34.96-3.18,0-1.13-.49-2.02-1.48-2.66-.99-.64-2.27-.96-3.85-.96-3.75,0-7.06,1.59-9.92,4.77-2.86,3.18-4.96,8.38-6.29,15.58l-1.41,7.7h19.09s-1.11,6.07-1.11,6.07h-19.17s-11.1,59.87-11.1,59.87c-1.78,9.67-4.66,17.04-8.66,22.13-4,5.08-9.69,7.65-17.09,7.7-2.81,0-5.51-.44-8.1-1.33Z"></path><path class="cls-1" d="M1392.65,559.24h7.4c2.37,0,4.09-.52,5.18-1.55,1.08-1.04,1.63-2.66,1.63-4.88v-72.67c0-2.22-.55-3.85-1.63-4.88-1.09-1.04-2.81-1.55-5.18-1.55h-7.4s0-6.07,0-6.07h41.44c10.16,0,19.63,1.54,28.42,4.62,8.78,3.08,15.97,8.21,21.57,15.39,5.6,7.18,8.4,16.59,8.4,28.23,0,11.99-2.8,21.66-8.4,29.01-5.6,7.35-12.78,12.57-21.53,15.65-8.76,3.08-18.24,4.65-28.45,4.7l-41.44.08v-6.07ZM1455.81,555.17c6.63-2.71,12.07-7.3,16.32-13.77,4.24-6.46,6.36-14.97,6.36-25.53,0-10.26-2.12-18.54-6.37-24.83-4.24-6.29-9.68-10.75-16.32-13.39-6.64-2.64-13.78-3.96-21.42-3.96h-13.84s0,79.11,0,79.11c0,2.22.53,3.85,1.59,4.88,1.06,1.04,2.8,1.55,5.22,1.55h7.03c7.65,0,14.79-1.36,21.42-4.07Z"></path><path class="cls-1" d="M1512.93,564.9c-2.89-1.45-5.07-3.44-6.55-5.96-1.48-2.52-2.22-5.35-2.22-8.51,0-9.52,6.46-15.66,19.39-18.43l19.39-4.15v-7.77c0-5.67-1.28-9.8-3.85-12.39-2.57-2.59-6.41-3.88-11.54-3.88-2.86,0-5.28.64-7.25,1.92-1.97,1.28-2.96,2.89-2.96,4.81,0,.89.27,1.97.81,3.26.25.59.46,1.2.63,1.81.17.62.26,1.25.26,1.89,0,1.73-.67,3.19-2,4.4-1.33,1.21-3.01,1.81-5.03,1.81-2.12,0-3.87-.64-5.25-1.92-1.38-1.28-2.07-3.23-2.07-5.85,0-3.16,1.19-6.12,3.59-8.88,2.39-2.76,5.65-4.98,9.77-6.66,4.12-1.68,8.6-2.52,13.43-2.52,7.7,0,13.65,1.71,17.87,5.14,4.22,3.43,6.33,8.6,6.33,15.5v33.08c0,2.47.46,4.33,1.37,5.59.91,1.26,2.13,1.89,3.66,1.89,1.33,0,2.49-.47,3.48-1.41.99-.94,1.85-2.52,2.59-4.74l3.7,1.63c-.69,3.65-2.31,6.61-4.85,8.88-2.54,2.27-5.64,3.4-9.29,3.4-3.85,0-6.77-.96-8.77-2.89s-3.47-4.71-4.4-8.36h-.44c-1.97,3.46-4.6,6.23-7.88,8.33-3.28,2.1-7.14,3.15-11.58,3.15-4,0-7.44-.73-10.32-2.18ZM1519.52,556.13c1.85,2.02,4.6,3.03,8.25,3.03,2.81,0,5.38-.63,7.7-1.89,2.32-1.26,4.14-3.07,5.48-5.44,1.33-2.37,2-5.13,2-8.29v-10.8s-14.8,3.48-14.8,3.48c-7.6,1.88-11.4,5.92-11.4,12.14,0,3.16.93,5.75,2.78,7.77Z"></path><path class="cls-1" d="M1585.71,562.93c-3.26-2.76-4.88-7.03-4.88-12.8v-44.47h-12.58v-5.33s4.22-.37,4.22-.37c3.6-.25,6.15-1.34,7.66-3.29,1.5-1.95,2.43-5.04,2.77-9.29l.67-9.03h9.99v21.24s22.42,0,22.42,0v6.07s-22.42,0-22.42,0v42.7c0,3.3.79,5.72,2.37,7.25,1.58,1.53,3.67,2.29,6.29,2.29s4.86-.78,6.59-2.33c1.73-1.55,3.01-4.18,3.85-7.88l4.66,1.85c-.79,5.53-2.79,9.83-5.99,12.91-3.21,3.08-7.47,4.62-12.8,4.62-5.28,0-9.55-1.38-12.8-4.14Z"></path><path class="cls-1" d="M1635.03,564.89c-2.89-1.45-5.07-3.44-6.55-5.96-1.48-2.52-2.22-5.35-2.22-8.51,0-9.52,6.46-15.66,19.39-18.43l19.39-4.15v-7.77c0-5.67-1.28-9.8-3.85-12.39-2.57-2.59-6.41-3.88-11.54-3.88-2.86,0-5.28.64-7.25,1.92-1.97,1.28-2.96,2.89-2.96,4.81,0,.89.27,1.97.81,3.26.25.59.46,1.2.63,1.81.17.62.26,1.25.26,1.89,0,1.73-.67,3.19-2,4.4s-3.01,1.81-5.03,1.81c-2.12,0-3.87-.64-5.25-1.92-1.38-1.28-2.07-3.23-2.07-5.85,0-3.16,1.19-6.12,3.59-8.88,2.39-2.76,5.65-4.98,9.77-6.66,4.12-1.68,8.6-2.52,13.43-2.52,7.7,0,13.65,1.71,17.87,5.14,4.22,3.43,6.33,8.6,6.33,15.5v33.08c0,2.47.46,4.33,1.37,5.59.91,1.26,2.13,1.89,3.66,1.89,1.33,0,2.49-.47,3.48-1.41.99-.94,1.85-2.52,2.59-4.74l3.7,1.63c-.69,3.65-2.31,6.61-4.85,8.88-2.54,2.27-5.64,3.4-9.29,3.4-3.85,0-6.77-.96-8.77-2.88s-3.47-4.71-4.4-8.36h-.44c-1.97,3.45-4.6,6.23-7.88,8.33-3.28,2.1-7.14,3.15-11.58,3.15-4,0-7.44-.73-10.32-2.18ZM1641.62,556.12c1.85,2.02,4.6,3.03,8.25,3.03,2.81,0,5.38-.63,7.7-1.89,2.32-1.26,4.14-3.07,5.48-5.44,1.33-2.37,2-5.13,2-8.29v-10.8s-14.8,3.48-14.8,3.48c-7.6,1.88-11.4,5.92-11.4,12.14,0,3.16.93,5.75,2.78,7.77Z"></path><path class="cls-1" d="M1732.01,559.22h7.4c2.37,0,4.09-.52,5.18-1.55,1.08-1.04,1.63-2.66,1.63-4.88v-72.67c0-2.22-.55-3.85-1.63-4.88-1.09-1.04-2.81-1.55-5.18-1.55h-7.4s0-6.07,0-6.07h46.4c10.61,0,18.86,2.27,24.75,6.8,5.9,4.54,8.84,11.27,8.84,20.2,0,8.93-2.97,15.66-8.92,20.2-5.94,4.54-14.34,6.83-25.2,6.88l-17.98.08v31.01c0,2.22.54,3.85,1.63,4.88,1.08,1.04,2.81,1.55,5.18,1.55h8.88s0,6.07,0,6.07h-43.59s0-6.07,0-6.07ZM1775.52,515.78c8.09-.05,13.91-1.78,17.46-5.18s5.33-8.71,5.33-15.91c0-7.2-1.78-12.51-5.33-15.91-3.55-3.4-9.37-5.11-17.46-5.11h-15.61s0,42.18,0,42.18l15.61-.08Z"></path><path class="cls-1" d="M1821.33,559.22h4c2.17,0,3.69-.42,4.55-1.26.86-.84,1.29-2.29,1.29-4.37v-42.33c0-2.07-.44-3.53-1.3-4.37-.86-.84-2.38-1.26-4.55-1.26h-4s0-6.07,0-6.07h22.5s0,14.06,0,14.06h.37c2.86-5.08,5.89-8.99,9.1-11.73s7.13-4.11,11.77-4.11c2.47,0,4.56.62,6.29,1.85,1.73,1.23,2.59,2.99,2.59,5.25,0,1.92-.57,3.54-1.7,4.85-1.14,1.31-2.62,1.96-4.44,1.96-.79,0-1.51-.09-2.15-.26-.64-.17-1.53-.46-2.66-.85-.94-.39-1.81-.7-2.63-.92-.81-.22-1.71-.33-2.7-.33-2.62,0-4.97.9-7.07,2.7-2.1,1.8-3.74,4.25-4.92,7.36-1.18,3.11-1.78,6.54-1.78,10.29v23.9c0,2.07.43,3.53,1.3,4.37.86.84,2.38,1.26,4.55,1.26h5.77s0,6.07,0,6.07h-34.19s0-6.07,0-6.07Z"></path><path class="cls-1" d="M1879.05,559.21h4c2.17,0,3.69-.42,4.55-1.26.86-.84,1.29-2.29,1.29-4.37v-42.33c0-2.07-.44-3.53-1.3-4.37-.86-.84-2.38-1.26-4.55-1.26h-4v-6.07s22.57,0,22.57,0v54.02c0,2.07.44,3.53,1.3,4.37.86.84,2.38,1.26,4.55,1.26h4v6.07s-32.41,0-32.41,0v-6.07ZM1887.48,482.36c-1.63-1.65-2.44-3.71-2.44-6.18,0-2.47.81-4.51,2.44-6.14,1.63-1.63,3.8-2.44,6.51-2.44,2.76,0,4.96.81,6.59,2.44,1.63,1.63,2.44,3.68,2.44,6.14,0,2.47-.81,4.53-2.44,6.18-1.63,1.65-3.82,2.48-6.59,2.48-2.71,0-4.88-.83-6.51-2.48Z"></path><path class="cls-1" d="M1917.34,506.86c-1.06-.81-2.6-1.22-4.62-1.22h-2.37v-6.07s32.41,0,32.41,0v6.07s-4.96,0-4.96,0c-1.63,0-2.82.23-3.59.7-.77.47-1.15,1.22-1.15,2.26,0,.74.22,1.68.67,2.81l16.06,38.55,16.06-38.63c.44-1.04.67-1.95.67-2.74,0-1.97-1.6-2.96-4.81-2.96h-4.74v-6.07s26.57,0,26.57,0v6.07s-2.37,0-2.37,0c-2.02,0-3.58.41-4.66,1.22-1.09.81-2.05,2.26-2.89,4.33l-22.57,54.09h-8.21s-22.57-54.02-22.57-54.02c-.89-2.12-1.86-3.59-2.92-4.4Z"></path><path class="cls-1" d="M1998.37,564.87c-2.89-1.45-5.07-3.44-6.55-5.96-1.48-2.52-2.22-5.35-2.22-8.51,0-9.52,6.46-15.66,19.39-18.43l19.39-4.15v-7.77c0-5.67-1.28-9.8-3.85-12.39-2.57-2.59-6.41-3.88-11.54-3.88-2.86,0-5.28.64-7.25,1.92-1.97,1.28-2.96,2.89-2.96,4.81,0,.89.27,1.97.81,3.26.25.59.46,1.2.63,1.81.17.62.26,1.25.26,1.89,0,1.73-.67,3.19-2,4.4-1.33,1.21-3.01,1.81-5.03,1.81-2.12,0-3.87-.64-5.25-1.92-1.38-1.28-2.07-3.23-2.07-5.85,0-3.16,1.19-6.12,3.59-8.88,2.39-2.76,5.65-4.98,9.77-6.66,4.12-1.68,8.6-2.52,13.43-2.52,7.7,0,13.65,1.71,17.87,5.14,4.22,3.43,6.33,8.6,6.33,15.5v33.08c0,2.47.46,4.33,1.37,5.59.91,1.26,2.13,1.89,3.66,1.89,1.33,0,2.49-.47,3.48-1.41.99-.94,1.85-2.52,2.59-4.74l3.7,1.63c-.69,3.65-2.31,6.61-4.85,8.88-2.54,2.27-5.64,3.4-9.29,3.4-3.85,0-6.77-.96-8.77-2.89s-3.47-4.71-4.4-8.36h-.44c-1.97,3.45-4.6,6.23-7.88,8.33-3.28,2.1-7.14,3.15-11.58,3.15-4,0-7.44-.73-10.32-2.18ZM2004.96,556.1c1.85,2.02,4.6,3.03,8.25,3.03,2.81,0,5.38-.63,7.7-1.89,2.32-1.26,4.14-3.07,5.48-5.44,1.33-2.37,2-5.13,2-8.29v-10.8s-14.8,3.48-14.8,3.48c-7.6,1.88-11.4,5.92-11.4,12.14,0,3.16.93,5.75,2.78,7.77Z"></path><path class="cls-1" d="M2074.41,563.09c-4.49-2.64-8.1-6.46-10.84-11.47-2.74-5.01-4.11-10.89-4.11-17.65,0-7,1.43-13.26,4.29-18.76,2.86-5.5,6.73-9.78,11.62-12.84,4.88-3.06,10.26-4.59,16.13-4.59,4.19,0,8.05.83,11.58,2.48,3.53,1.65,6.33,3.86,8.4,6.62,2.07,2.76,3.11,5.75,3.11,8.95,0,2.62-.73,4.61-2.18,5.99-1.46,1.38-3.24,2.07-5.37,2.07s-3.75-.6-5.03-1.81c-1.28-1.21-1.92-2.7-1.92-4.48,0-.74.09-1.38.26-1.92.17-.54.41-1.18.7-1.92.54-1.08.81-2.05.81-2.89,0-2.22-.93-3.96-2.78-5.22-1.85-1.26-4.38-1.89-7.58-1.89-3.45,0-6.64,1.06-9.55,3.18-2.91,2.12-5.23,5.13-6.96,9.03-1.73,3.9-2.59,8.39-2.59,13.47,0,5.53.89,10.34,2.67,14.43,1.78,4.09,4.29,7.24,7.55,9.43,3.26,2.2,7.08,3.29,11.47,3.29,7.65,0,13.96-3.63,18.94-10.88l2.66,1.7c-1.18,3.45-2.96,6.66-5.33,9.62-2.37,2.96-5.36,5.37-8.99,7.22s-7.81,2.78-12.54,2.78c-5.13,0-9.94-1.32-14.43-3.96Z"></path><path class="cls-1" d="M2130.28,595.05c-2.12-1.06-3.75-2.49-4.88-4.29-1.14-1.8-1.7-3.74-1.7-5.81,0-2.27.64-4.18,1.92-5.74,1.28-1.55,3.01-2.33,5.18-2.33,1.58,0,2.92.5,4.03,1.52,1.11,1.01,1.67,2.28,1.67,3.81,0,.54-.1,1.06-.3,1.55-.2.49-.42.94-.67,1.33-.59.89-.89,1.65-.89,2.29,0,.84.41,1.53,1.22,2.07.81.54,1.81.81,3,.81,2.07,0,3.9-.84,5.48-2.52,1.58-1.68,3.06-4.19,4.44-7.55l6.07-14.58-23.09-54.39c-.89-2.12-1.88-3.59-2.96-4.4-1.09-.81-2.64-1.22-4.66-1.22h-2.37v-6.07s32.41,0,32.41,0v6.07s-4.96,0-4.96,0c-1.63,0-2.82.24-3.59.7-.77.47-1.15,1.22-1.15,2.26,0,.74.22,1.68.67,2.81l16.43,38.63,16.2-38.7c.49-1.23.74-2.17.74-2.81,0-1.92-1.58-2.89-4.74-2.89h-4.81s0-6.07,0-6.07h26.57s0,6.07,0,6.07h-2.37c-2.02,0-3.58.41-4.66,1.22-1.09.81-2.07,2.28-2.96,4.4l-30.04,70.97c-1.88,4.44-4.18,7.96-6.92,10.55-2.74,2.59-6.38,3.89-10.92,3.89-2.81,0-5.28-.53-7.4-1.59Z"></path></g><g class="cls-3"><path class="cls-1" d="M234.21,335.21c0,4.05-1.58,6.32-4.16,6.32s-4.16-2.32-4.16-6.32c0-3.8,1.61-6.02,4.16-6.02,2.56,0,4.16,2.2,4.16,6.02h0ZM167.83,324.18l5.52,1.84c1.11-1.24,1.47-2.53,1.47-4,0-3.4-2.32-5.45-6.07-5.45-3.75,0-5.24,1.58-5.24,3.68,0,1.8,1.36,2.94,4.32,3.93h.01ZM170.17,333.37l-5.54-1.93c-1.44,1.38-2.09,2.73-2.09,4.36,0,3.61,2.35,5.72,6.69,5.72,4.11,0,6.02-2.11,6.02-4.18,0-2.07-1.38-2.69-5.09-3.98h0ZM187.5,27.7l163.47,94.37v188.74s-163.44,94.38-163.44,94.38L24.06,310.83V122.07S187.5,27.7,187.5,27.7ZM145.85,96.61l1.12,9.51c1.37-.28,2.73-.54,4.1-.8-.15-3.27,1.03-5.22,5.72-5.87l3.77-.48,2.24,22.99c.2,1.74-.62,2.86-2.2,3.06-.68.09-1.36.18-2.04.28.17,1.16.34,2.34.5,3.5,5.9-.85,11.82-1.43,17.75-1.73-.06-1.18-.13-2.36-.18-3.53-.68.03-1.36.08-2.05.11-1.58.11-2.61-.84-2.75-2.57l-2.24-22.99,3.74-.25c4.72-.27,6.24,1.4,6.71,4.63,1.39,0,2.78,0,4.16,0l-.72-9.56c-13.08-.11-24.78,1.05-37.65,3.69h0ZM146.37,164.45c6.07,1.75,20.15,3.57,41.19,3.57,21.03,0,34.93-1.8,41.07-3.54-23.71-23.22-58.55-23.23-82.25-.03h-.01ZM140.8,170.14c-5.5,6.16-10.21,12.93-14.12,20.15,21.36,9.78,100.09,9.76,121.62.05-3.92-7.24-8.65-14.05-14.17-20.23-5.72,2.72-18.42,5.25-46.57,5.25-12.64,0-24.44-.67-33.23-1.89-6.19-.85-10.6-1.92-13.52-3.33h-.01ZM259.16,219.31c-1.77-7.71-4.29-15.23-7.58-22.4-3.91,1.99-9.72,3.58-17.69,4.88-23.94,4.11-68.76,4.11-92.7,0-8.05-1.31-13.9-2.93-17.81-4.94-3.3,7.19-5.83,14.72-7.59,22.45,15.31,10.26,128.38,10.15,143.36,0h.01ZM114.18,226.61l-4.65,21.34.02.02c15.7,13.73,139.98,13.77,155.84,0h.02s-4.66-21.35-4.66-21.35c-26.32,10.64-120.15,10.67-146.57,0h0ZM104.38,114.85c1.82,4.84,3.64,9.68,5.47,14.52,3.21,8.28,10.83,9.56,18.97,7.04,7.84-2.43,13.55-8.04,11.3-17.09-1.14-4.41-2.28-8.83-3.42-13.24-.75-2.86-.07-4.19,2.04-4.71.25-.06.5-.13.76-.18-.27-1.14-.55-2.3-.82-3.44-5.14,1.24-10.26,2.66-15.32,4.25.35,1.13.71,2.25,1.06,3.38.35-.11.69-.22,1.04-.33,2.63-.81,4.4-.15,5.21,2.69,1.15,4,2.32,8.01,3.47,12.01,1.5,5.28-1.11,8.45-5.75,9.86-4.78,1.45-8.43.05-10.18-5.27-1.4-4.28-2.79-8.58-4.19-12.86-.54-1.66.18-2.98,1.93-3.52.53-.17,1.06-.33,1.59-.49-.34-1.13-.69-2.26-1.03-3.39-6.09,1.86-12.12,3.96-18.09,6.33.44,1.1.87,2.2,1.3,3.29.34-.13.68-.27,1.03-.41,1.66-.64,3.05-.08,3.66,1.55h-.01ZM151.62,341.3h-3.77c-1.54,0-2.07-.64-2.07-1.96v-19.03s-5.61,0-5.61,0c-2.53,2.78-4.73,3.98-9.38,4.62v2.72c2.54-.16,4.32-.38,5.65-.58,1-.16,1.52.23,1.52,1.29v10.98c0,1.31-.53,1.96-2.09,1.96h-3.8s0,2.91,0,2.91h19.54s0-2.92,0-2.92h.01ZM181.48,334.43c0-4.3-3.45-6.8-6.83-7.98,2.64-.8,5.54-2.47,5.54-5.8,0-4.3-4.34-7.34-11.15-7.34-6.8,0-11.74,3.45-11.74,9.79,0,3.49,2.62,6.27,5.91,7.74-3.36.78-6.6,2.66-6.6,6.34,0,4.32,4.87,7.56,11.91,7.56,7.04,0,12.96-3.42,12.96-10.34v.02ZM211.73,333.18c0-6.55-3.43-13.43-12.56-13.43-7.38,0-12.05,4.58-12.05,10.67,0,5.45,3.84,9.29,9.1,9.29,3.74,0,6.53-1.72,7.82-4.56-.14,5.84-3.49,12.3-14.14,15.61l.46,2.09c14.41-2.4,21.36-9.27,21.36-19.68h0ZM242.07,334.61c0-4.96-3.84-8.8-9.1-8.8-3.67,0-6.41,1.65-7.72,3.93.02-8.32,5.93-14.37,16.67-13.7l-.42-2.16c-1.51-.4-3.05-.53-4.42-.53-10.62,0-19.67,7.43-19.67,18.16,0,7.18,3.67,13.27,12.73,13.27,7.27,0,11.94-4.58,11.94-10.16h-.01ZM270.65,271.92l-3.52-16.1c-24.59,13.11-134.58,13.16-159.32,0l-3.51,16.11c-.57,2.58.1,5.31,1.94,7.22,7.1,7.39,29.26,11.99,55.13,13.81,7.22-.02,11.83-4.94,13.07-10.84,3.03-14.41,23.2-14.41,26.23,0,1.23,5.87,5.82,10.77,12.98,10.83,24.74-2.06,59.87-6.46,57.01-21.03h-.02ZM227.37,130.8c5.43,1.19,10.81,2.61,16.14,4.25.35-1.13.7-2.25,1.05-3.38-.46-.15-.94-.28-1.4-.43-1.54-.46-2.18-1.71-1.71-3.38l2.27-7.92c4.02,1.15,8.09,2.45,12.09,3.75l-2.54,7.84c-.54,1.66-1.77,2.33-3.31,1.86-.46-.15-.94-.29-1.41-.43-.34,1.13-.68,2.26-1.03,3.39,5.35,1.62,10.65,3.46,15.88,5.54.44-1.1.87-2.2,1.31-3.29-.43-.17-.47-.2-.91-.36-1.53-.54-2.11-1.82-1.55-3.47l7.05-20.06c.59-1.64,1.82-2.36,3.55-1.75.5.18.98.35,1.48.53.41-1.11.82-2.22,1.22-3.33-6.2-2.26-11.96-4.41-18.22-6.31-.34,1.13-.68,2.26-1.02,3.39.53.16,1.07.33,1.59.49,1.75.54,2.48,1.85,1.93,3.51l-2.32,7.15c-4.11-1.33-8.14-2.62-12.27-3.81l2.08-7.22c.48-1.68,1.81-2.36,3.56-1.83.53.16,1.06.32,1.59.48.35-1.13.7-2.25,1.04-3.38-6.24-1.93-12.12-3.35-18.42-4.94-.3,1.15-.58,2.29-.87,3.44.5.12,1,.26,1.5.38,1.75.46,2.53,1.74,2.07,3.41l-5.63,20.58c-.46,1.68-1.66,2.41-3.2,2.01-.44-.11-.41-.05-.86-.16-.25,1.16-.51,2.31-.76,3.46v-.03ZM186.3,123.27h-.81c0,1.18.02,2.36.04,3.54,4.46-.04,8.94.08,13.39.34.07-1.18.14-2.35.21-3.54-.63-.03-1.28-.07-1.91-.1-1.72-.09-2.27-1.31-1.41-3.32.56-1.32,1.14-2.63,1.71-3.94,3.65.18,7.3.45,10.95.82.44,1.62.86,3.24,1.27,4.86.42,1.66-.28,2.56-1.86,2.38-.71-.07-1.43-.13-2.13-.2-.1,1.18-.21,2.35-.33,3.53,5.67.52,11.32,1.29,16.94,2.29.21-1.16.42-2.32.62-3.48-.23-.04-.45-.08-.68-.12-1.7-.3-2.55-.72-3.06-3.12l-7.72-29.37c-3.1-.33-6.19-.59-9.3-.79l-12.21,26.74c-1,2.51-1.68,3.47-3.73,3.47v.02ZM204.3,102.97c-.18-.01-.36-.02-.55-.05-1.29,2.58-2.53,5.16-3.73,7.77,2.27.14,4.54.3,6.8.52-.8-2.75-1.64-5.49-2.52-8.24h0ZM199.15,323c-2.57,0-4.16,2.27-4.16,6.83,0,4.27,1.58,6.49,4.16,6.49,2.58,0,4.14-2.23,4.14-6.56,0-4.33-1.54-6.76-4.14-6.76h0ZM375.01,108.17v216.52s-187.48,108.26-187.48,108.26L.02,324.71V108.2S187.5-.07,187.5-.07l187.51,108.24ZM364.83,114.05L187.5,11.67,10.18,114.07v204.77s177.35,102.36,177.35,102.36l177.32-102.39V114.05ZM364.83,114.05"></path></g></svg>